<?xml version="1.0" encoding="utf-8"?>
<!-- Generator: Adobe Illustrator 26.0.3, SVG Export Plug-In . SVG Version: 6.00 Build 0)  -->
<svg version="1.1"
	 id="svg4" xmlns:inkscape="http://www.inkscape.org/namespaces/inkscape" xmlns:sodipodi="http://sodipodi.sourceforge.net/DTD/sodipodi-0.dtd" xmlns:svg="http://www.w3.org/2000/svg"
	 xmlns="http://www.w3.org/2000/svg" xmlns:xlink="http://www.w3.org/1999/xlink" x="0px" y="0px" viewBox="0 0 179 12.7"
	 style="enable-background:new 0 0 179 12.7;" xml:space="preserve">
<style type="text/css">
	.st0{opacity:0.85;}
	.st1{fill:#620084;}
	.st2{fill:#8A8B93;}
</style>
<sodipodi:namedview  bordercolor="#666666" borderopacity="1.0" fit-margin-bottom="0" fit-margin-left="0" fit-margin-right="0" fit-margin-top="0" id="namedview6" inkscape:current-layer="svg4" inkscape:cx="74.68996" inkscape:cy="6.2441767" inkscape:pagecheckerboard="0" inkscape:pageopacity="0.0" inkscape:pageshadow="2" inkscape:window-height="1007" inkscape:window-maximized="1" inkscape:window-width="1920" inkscape:window-x="0" inkscape:window-y="0" inkscape:zoom="4.1638796" pagecolor="#ffffff" showgrid="false">
	</sodipodi:namedview>
<g class="st0">
	<path class="st1" d="M41.5,7.5l1.3,0.4c0,0.3,0,0.5,0,0.7c0,1.1-0.4,1.9-1.1,2.5C41,11.7,40,12,38.7,12c-3.2,0-4.8-1.8-4.8-5.4
		c0-1.7,0.5-3.1,1.4-4.2s2.2-1.6,3.7-1.6c2.4,0,3.5,1.1,3.5,3.4l-1.4,0.6c0-0.3,0-0.6,0-0.7c0-1.6-0.6-2.4-1.9-2.4
		c-1.4,0-2,1.7-2,5.1c0,2.9,0.8,4.4,2.3,4.4c0.6,0,1.2-0.3,1.6-0.8c0.4-0.5,0.6-1.1,0.6-1.9C41.6,8.3,41.6,7.9,41.5,7.5z"/>
	<path class="st1" d="M46.8,0.8v11.1h-2.9V1C44.7,1,45.7,0.9,46.8,0.8z"/>
	<path class="st1" d="M48.5,11.9v-8c0.9,0,1.9-0.1,2.9-0.2v8.3H48.5z M49.9,0.7c0.9,0,1.4,0.4,1.4,1.1s-0.5,1.1-1.4,1.1
		s-1.4-0.4-1.4-1.1S49,0.7,49.9,0.7z"/>
	<path class="st1" d="M60.6,11.9h-2.9V5.9c0-0.6-0.2-0.9-0.5-0.9c-0.3,0-0.6,0.2-0.9,0.7S56,6.8,56,7.4v4.4H53V3.8
		c1,0,2-0.1,2.9-0.2v1.5c0.7-1,1.6-1.5,2.6-1.5c1.4,0,2,0.7,2,2.1V11.9z"/>
	<path class="st1" d="M66.6,3.8v0.9h-1.3v5.7c0,0.4,0.1,0.5,0.3,0.5c0.2,0,0.3-0.1,0.3-0.4l0.8,0.1c-0.2,0.8-1,1.3-2.2,1.3
		c-1.5,0-2.2-0.6-2.2-1.9V4.7h-1V3.8h1V2.4c1-0.3,2-0.7,2.9-1.2v2.6H66.6z"/>
	<path class="st1" d="M75.3,1v1.1h-2.7v9.8h-3.4V2.1h-2.7V1H75.3z"/>
	<path class="st1" d="M79.6,3.6c2.7,0,4,1.4,4,4.2s-1.3,4.2-4,4.2c-2.7,0-4-1.4-4-4.2S77,3.6,79.6,3.6z M79.6,4.3
		c-0.6,0-1,1.2-1,3.5s0.3,3.5,1,3.5c0.6,0,1-1.2,1-3.5S80.3,4.3,79.6,4.3z"/>
	<path class="st1" d="M88.5,3.6c2.7,0,4,1.4,4,4.2s-1.3,4.2-4,4.2c-2.7,0-4-1.4-4-4.2S85.8,3.6,88.5,3.6z M88.5,4.3
		c-0.6,0-1,1.2-1,3.5s0.3,3.5,1,3.5c0.6,0,1-1.2,1-3.5S89.1,4.3,88.5,4.3z"/>
	<path class="st1" d="M96.6,0.8v11.1h-2.9V1C94.5,1,95.4,0.9,96.6,0.8z"/>
	<path class="st1" d="M104.5,5.9L103,6.1c0-1.2-0.6-1.8-1.7-1.8c-0.7,0-1,0.3-1,0.8c0,0.4,0.6,0.9,1.8,1.3c1.8,0.7,2.7,1.7,2.7,2.8
		c0,1.8-1.2,2.7-3.5,2.7c-2.4,0-3.7-0.9-3.7-2.7L99.2,9c0,0.2,0,0.3,0,0.5c0,0.5,0.2,0.9,0.6,1.2s0.9,0.5,1.4,0.5
		c0.7,0,1.1-0.3,1.1-0.9c0-0.4-0.6-0.8-1.7-1.3c-1.7-0.7-2.6-1.7-2.6-2.8c0-0.8,0.3-1.4,1-1.9s1.5-0.7,2.5-0.7
		C103.3,3.6,104.3,4.4,104.5,5.9z"/>
</g>
<g>
	<path class="st2" d="M116.6,10.7l-2.3-8.3h1.3l1.9,7.3h0.1l1.9-7.3h1.3l-2.3,8.3H116.6z"/>
	<path class="st2" d="M124.6,10.9c-2,0-3.1-1.4-3.1-4.2c0-2.9,1-4.3,3.1-4.3s3.1,1.4,3.1,4.3C127.6,9.4,126.6,10.9,124.6,10.9z
		 M124.6,9.8c1.2,0,1.8-1,1.8-3.1c0-2.2-0.6-3.3-1.8-3.3s-1.8,1.1-1.8,3.3C122.7,8.7,123.4,9.8,124.6,9.8z"/>
	<path class="st2" d="M132.5,10.9c-2.6,0-3.9-1.4-3.9-4.3c0-1.4,0.3-2.4,1-3.1s1.6-1.1,2.8-1.1c0.6,0,1.1,0.1,1.5,0.3
		s0.7,0.4,0.9,0.8l-0.9,0.9c-0.2-0.3-0.4-0.5-0.7-0.6s-0.6-0.2-0.9-0.2c-0.8,0-1.4,0.3-1.8,0.8s-0.7,1.3-0.7,2.3
		c0,2.2,0.9,3.3,2.8,3.3c0.6,0,1.1-0.1,1.7-0.4l0.3,1C133.9,10.7,133.2,10.9,132.5,10.9z"/>
	<path class="st2" d="M138.6,10.9c-2,0-3.1-1.4-3.1-4.2c0-2.9,1-4.3,3.1-4.3s3.1,1.4,3.1,4.3C141.7,9.4,140.7,10.9,138.6,10.9z
		 M138.6,9.8c1.2,0,1.8-1,1.8-3.1c0-2.2-0.6-3.3-1.8-3.3s-1.8,1.1-1.8,3.3C136.8,8.7,137.4,9.8,138.6,9.8z"/>
	<path class="st2" d="M143,10.7V2.4h1.2v8.3H143z M144.1,10.7V9.6h0.9c0.9,0,1.5-0.2,1.9-0.7s0.6-1.2,0.6-2.2c0-1.1-0.2-1.9-0.6-2.4
		s-1.1-0.8-1.9-0.8h-0.9L144,2.4h1c2.5,0,3.8,1.4,3.8,4.3c0,2.7-1.3,4-3.8,4H144.1z"/>
	<path class="st2" d="M150.1,10.7V2.4h1.2v8.3H150.1z M150.1,3.5V2.4h5.5v1.1H150.1z M150.1,7.1V6h4.5v1.1H150.1z M150.1,10.7V9.6
		h5.5v1.1H150.1z"/>
	<path class="st2" d="M157,10.7V2.4h1.2v8.3H157z M158.2,7.6V6.5h1.7c0.5,0,0.8-0.1,1.1-0.4s0.4-0.6,0.4-1c0-0.5-0.1-0.9-0.4-1.1
		s-0.6-0.4-1.1-0.4h-1.7L158,2.4h1.8c0.9,0,1.5,0.2,2,0.7s0.7,1.1,0.7,1.9c0,0.8-0.2,1.5-0.7,1.9s-1.1,0.7-2,0.7H158.2z M161.5,10.7
		l-1.9-3.9h1.3l2,3.9H161.5z"/>
</g>
</svg>
