<?xml version="1.0" encoding="utf-8"?>
<!-- Generator: Adobe Illustrator 26.0.3, SVG Export Plug-In . SVG Version: 6.00 Build 0)  -->
<svg version="1.1"
	 id="svg4" xmlns:inkscape="http://www.inkscape.org/namespaces/inkscape" xmlns:sodipodi="http://sodipodi.sourceforge.net/DTD/sodipodi-0.dtd" xmlns:svg="http://www.w3.org/2000/svg"
	 xmlns="http://www.w3.org/2000/svg" xmlns:xlink="http://www.w3.org/1999/xlink" x="0px" y="0px" viewBox="0 0 20.1 215.5"
	 style="enable-background:new 0 0 20.1 215.5;" xml:space="preserve">
<style type="text/css">
	.st0{fill:#FFFFFF;fill-opacity:0.9;}
</style>
<sodipodi:namedview  bordercolor="#666666" borderopacity="1.0" fit-margin-bottom="0" fit-margin-left="0" fit-margin-right="0" fit-margin-top="0" id="namedview6" inkscape:current-layer="svg4" inkscape:cx="-23.825434" inkscape:cy="107.55727" inkscape:pagecheckerboard="0" inkscape:pageopacity="0.0" inkscape:pageshadow="2" inkscape:window-height="1009" inkscape:window-maximized="1" inkscape:window-width="1920" inkscape:window-x="0" inkscape:window-y="0" inkscape:zoom="5.8341014" pagecolor="#ffffff" showgrid="false">
	</sodipodi:namedview>
<path id="path2" class="st0" d="M2.2,46h7.6V36h1.8v10h8.2v2H0.4V34.8h1.8V46z M0.4,10.2h19.3v2H4.3l13,7.6v1L4.3,28.3h15.4v2H0.4
	v-1.7l14.3-8.4L0.4,11.9V10.2z M0.4,0h19.3v2H2.2v4.6H0.4V0z M12.2,166.8l0.6-2.3c0.5,0,0.9-0.1,1.2-0.1c1.8,0,3.2,0.6,4.3,1.9
	s1.6,3,1.6,5.2c0,5.4-3.1,8.2-9.2,8.2c-2.9,0-5.3-0.8-7.1-2.4s-2.7-3.7-2.7-6.2c0-4,1.9-6,5.7-6l1,2.3c-0.5,0-1,0-1.3,0
	c-2.7,0-4.1,1.1-4.1,3.3c0,2.3,2.9,3.4,8.6,3.4c4.9,0,7.4-1.3,7.4-3.8c0-1.1-0.4-1.9-1.3-2.6c-0.8-0.7-1.9-1.1-3.2-1.1
	C13.6,166.7,13,166.7,12.2,166.8z M0.9,157.8h18.6v4.9H1.2C1.2,161.4,1.1,159.8,0.9,157.8z M19.5,155.1H6c0-1.5-0.1-3.2-0.4-4.9
	h13.9V155.1z M0.7,152.6c0-1.5,0.6-2.3,1.8-2.3s1.8,0.8,1.8,2.3c0,1.5-0.6,2.3-1.8,2.3S0.7,154.1,0.7,152.6z M19.5,134.6v4.9h-10
	c-1,0-1.5,0.3-1.5,0.8c0,0.6,0.4,1.1,1.2,1.5c0.8,0.4,1.8,0.6,2.8,0.6h7.4v4.9H6c0-1.7-0.1-3.3-0.3-4.9h2.5
	c-1.7-1.2-2.5-2.7-2.5-4.5c0-2.3,1.2-3.4,3.5-3.4H19.5z M6,124.5h1.5v2.2h9.6c0.6,0,0.9-0.2,0.9-0.6c0-0.3-0.2-0.4-0.6-0.5l0.1-1.4
	c1.4,0.4,2.1,1.6,2.1,3.7c0,2.5-1,3.7-3.1,3.7h-9v1.6H6v-1.6H3.6c-0.5-1.7-1.1-3.3-2-4.9H6V124.5z M1.2,109.8H3v4.5h16.5v5.7H3v4.5
	H1.2V109.8z M5.6,102.6c0-4.5,2.4-6.7,7.1-6.7s7.1,2.2,7.1,6.7c0,4.5-2.4,6.7-7.1,6.7S5.6,107,5.6,102.6z M6.8,102.6
	c0,1.1,2,1.6,5.9,1.6s5.9-0.5,5.9-1.6c0-1.1-2-1.6-5.9-1.6S6.8,101.5,6.8,102.6z M5.6,87.6c0-4.5,2.4-6.7,7.1-6.7s7.1,2.2,7.1,6.7
	c0,4.5-2.4,6.7-7.1,6.7S5.6,92.1,5.6,87.6z M6.8,87.7c0,1.1,2,1.6,5.9,1.6s5.9-0.5,5.9-1.6c0-1.1-2-1.6-5.9-1.6S6.8,86.6,6.8,87.7z
	 M0.9,74h18.6v4.9H1.2C1.2,77.5,1.1,75.9,0.9,74z M9.5,60.7l0.4,2.4c-2,0-3,0.9-3,2.8c0,1.2,0.5,1.7,1.4,1.7c0.7,0,1.5-1,2.3-3
	c1.2-3,2.8-4.6,4.7-4.6c3.1,0,4.6,1.9,4.6,5.8c0,4.1-1.5,6.2-4.6,6.2l-0.5-2.5c0.3,0,0.6,0.1,0.8,0.1c0.8,0,1.5-0.3,2.1-1
	c0.6-0.7,0.9-1.4,0.9-2.3c0-1.2-0.5-1.8-1.5-1.8c-0.7,0-1.4,1-2.2,2.9c-1.2,2.9-2.8,4.3-4.8,4.3c-1.3,0-2.3-0.6-3.2-1.7
	s-1.2-2.5-1.2-4.3C5.6,62.7,6.9,61,9.5,60.7z"/>
</svg>
