<?xml version="1.0" encoding="utf-8"?>
<!-- Generator: Adobe Illustrator 26.0.3, SVG Export Plug-In . SVG Version: 6.00 Build 0)  -->
<svg version="1.1"
	 id="svg4" xmlns:inkscape="http://www.inkscape.org/namespaces/inkscape" xmlns:sodipodi="http://sodipodi.sourceforge.net/DTD/sodipodi-0.dtd" xmlns:svg="http://www.w3.org/2000/svg"
	 xmlns="http://www.w3.org/2000/svg" xmlns:xlink="http://www.w3.org/1999/xlink" x="0px" y="0px" viewBox="0 0 20.9 271.7"
	 style="enable-background:new 0 0 20.9 271.7;" xml:space="preserve">
<style type="text/css">
	.st0{fill:#FFFFFF;}
</style>
<sodipodi:namedview  bordercolor="#666666" borderopacity="1.0" fit-margin-bottom="0" fit-margin-left="0" fit-margin-right="0" fit-margin-top="0" id="namedview6" inkscape:current-layer="svg4" inkscape:cx="10.415663" inkscape:cy="135.95181" inkscape:pagecheckerboard="0" inkscape:pageopacity="0.0" inkscape:pageshadow="2" inkscape:window-height="1011" inkscape:window-maximized="1" inkscape:window-width="1920" inkscape:window-x="0" inkscape:window-y="0" inkscape:zoom="4.5604396" pagecolor="#ffffff" showgrid="false">
	</sodipodi:namedview>
<path id="path2" class="st0" d="M1.3,84.1h19.3v2H5.2l13,7.6v1l-12.9,7.6h15.4v2H1.3v-1.7l14.3-8.4L1.3,85.8V84.1z M6.1,64.9h14.5
	v1.9H18c0.9,0.5,1.6,1.2,2.1,2.1c0.5,0.9,0.7,1.9,0.7,3.1c0,1.9-0.5,3.4-1.6,4.5c-1.1,1.1-2.6,1.6-4.7,1.6H6.1v-2h8.2
	c1.5,0,2.7-0.4,3.5-1.1c0.8-0.8,1.2-1.8,1.2-3.2c0-1.5-0.5-2.7-1.4-3.6c-0.9-0.9-2.2-1.3-3.9-1.3H6.1V64.9z M0.1,59.1v-2h20.5v2H0.1
	z M19.7,43.7c0.3,0.4,0.6,0.8,0.8,1.4c0.2,0.5,0.2,1.1,0.2,1.7c0,1.4-0.4,2.4-1.1,3.1S17.9,51,16.5,51H7.7v2.6H6.1V51H2.9v-2h3.2
	v-4.4h1.7v4.4h8.7c0.9,0,1.5-0.2,2-0.6c0.4-0.4,0.7-1.1,0.7-1.9c0-0.4-0.1-0.8-0.2-1.2c-0.1-0.4-0.3-0.7-0.6-1L19.7,43.7z M6.1,39.9
	v-2h14.5v2H6.1z M2.9,38.9c0,0.4-0.1,0.7-0.4,1c-0.3,0.3-0.6,0.4-1,0.4c-0.4,0-0.7-0.1-1-0.4c-0.3-0.3-0.4-0.6-0.4-1
	c0-0.4,0.1-0.7,0.4-1c0.3-0.3,0.6-0.4,0.9-0.4c0.4,0,0.7,0.1,1,0.4C2.8,38.1,2.9,38.5,2.9,38.9z M3.1,29.7h7.6v-10h1.8v10h8.2v2H1.3
	V18.5h1.8V29.7z M20.6,2.4l-8.5,6.2l8.5,6.2v2.3l-9.9-7.3l-9.4,6.9v-2.3l7.9-5.8L1.3,2.7V0.5l9.3,6.8l10-7.4L20.6,2.4z M11.8,218.9
	l0.6-2.2c0.5,0,0.8-0.1,1.2-0.1c1.7,0,3.1,0.6,4.2,1.9c1,1.3,1.6,2.9,1.6,5c0,5.3-3,7.9-8.9,7.9c-2.8,0-5.1-0.8-6.9-2.3
	s-2.6-3.6-2.6-6c0-3.9,1.9-5.8,5.6-5.8l1,2.2c-0.5,0-0.9,0-1.2,0c-2.6,0-3.9,1.1-3.9,3.2c0,2.2,2.8,3.3,8.4,3.3
	c4.8,0,7.2-1.2,7.2-3.7c0-1-0.4-1.9-1.2-2.6c-0.8-0.7-1.8-1-3.1-1C13.2,218.7,12.6,218.7,11.8,218.9z M0.9,210.1H19v4.8H1.1
	C1.1,213.6,1.1,212,0.9,210.1z M19,207.5H5.8c0-1.5-0.1-3.1-0.4-4.8H19V207.5z M0.7,205c0-1.5,0.6-2.2,1.7-2.2s1.7,0.7,1.7,2.2
	s-0.6,2.2-1.7,2.2S0.7,206.5,0.7,205z M19,187.5v4.8H9.3c-1,0-1.5,0.3-1.5,0.8c0,0.6,0.4,1,1.2,1.5c0.8,0.4,1.7,0.6,2.8,0.6H19v4.8
	H5.8c0-1.6-0.1-3.2-0.3-4.8h2.5c-1.6-1.2-2.5-2.6-2.5-4.3c0-2.2,1.1-3.3,3.4-3.3H19z M5.8,177.7h1.5v2.1h9.3c0.6,0,0.9-0.2,0.9-0.6
	c0-0.3-0.2-0.4-0.6-0.5l0.1-1.4c1.4,0.4,2.1,1.6,2.1,3.6c0,2.4-1,3.6-3.1,3.6H7.3v1.6H5.8v-1.6H3.5c-0.5-1.6-1.1-3.2-2-4.8h4.3
	V177.7z M1.1,163.5h1.8v4.4h16v5.5h-16v4.4H1.1V163.5z M5.5,156.4c0-4.4,2.3-6.5,6.9-6.5s6.9,2.2,6.9,6.5c0,4.4-2.3,6.5-6.9,6.5
	S5.5,160.8,5.5,156.4z M6.6,156.4c0,1.1,1.9,1.6,5.7,1.6s5.7-0.5,5.7-1.6c0-1.1-1.9-1.6-5.7-1.6S6.6,155.4,6.6,156.4z M5.5,141.9
	c0-4.4,2.3-6.5,6.9-6.5s6.9,2.2,6.9,6.5c0,4.4-2.3,6.5-6.9,6.5S5.5,146.3,5.5,141.9z M6.6,142c0,1.1,1.9,1.6,5.7,1.6
	s5.7-0.5,5.7-1.6c0-1.1-1.9-1.6-5.7-1.6S6.6,140.9,6.6,142z M0.9,128.7H19v4.8H1.1C1.1,132.1,1.1,130.5,0.9,128.7z M9.2,115.8
	l0.4,2.3c-2,0-3,0.9-3,2.7c0,1.1,0.5,1.7,1.4,1.7c0.7,0,1.4-1,2.2-2.9c1.2-3,2.7-4.4,4.6-4.4c3,0,4.5,1.9,4.5,5.7c0,4-1.5,6-4.5,6
	l-0.5-2.5c0.3,0,0.6,0.1,0.8,0.1c0.8,0,1.4-0.3,2-1c0.6-0.6,0.8-1.4,0.8-2.3c0-1.2-0.5-1.7-1.5-1.7c-0.7,0-1.4,0.9-2.2,2.8
	c-1.2,2.8-2.7,4.2-4.6,4.2c-1.2,0-2.3-0.5-3.1-1.6s-1.2-2.4-1.2-4.1C5.5,117.7,6.7,116.1,9.2,115.8z"/>
</svg>
