<?xml version="1.0" encoding="utf-8"?>
<!-- Generator: Adobe Illustrator 26.0.3, SVG Export Plug-In . SVG Version: 6.00 Build 0)  -->
<svg version="1.1"
	 id="svg4" xmlns:inkscape="http://www.inkscape.org/namespaces/inkscape" xmlns:sodipodi="http://sodipodi.sourceforge.net/DTD/sodipodi-0.dtd" xmlns:svg="http://www.w3.org/2000/svg"
	 xmlns="http://www.w3.org/2000/svg" xmlns:xlink="http://www.w3.org/1999/xlink" x="0px" y="0px" viewBox="0 0 214.1 12.7"
	 style="enable-background:new 0 0 214.1 12.7;" xml:space="preserve">
<style type="text/css">
	.st0{fill:#111217;}
	.st1{fill:#620084;}
</style>
<sodipodi:namedview  bordercolor="#666666" borderopacity="1.0" fit-margin-bottom="0" fit-margin-left="0" fit-margin-right="0" fit-margin-top="0" id="namedview6" inkscape:current-layer="svg4" inkscape:cx="91.879519" inkscape:cy="6.520482" inkscape:pagecheckerboard="0" inkscape:pageopacity="0.0" inkscape:pageshadow="2" inkscape:window-height="1007" inkscape:window-maximized="1" inkscape:window-width="1920" inkscape:window-x="0" inkscape:window-y="0" inkscape:zoom="3.3739837" pagecolor="#ffffff" showgrid="false">
	</sodipodi:namedview>
<path id="path2" class="st0" d="M115.6,10.7c-0.3-0.2-0.6-0.5-0.8-0.9c-0.2-0.4-0.4-0.7-0.5-1.1c-0.1-0.4-0.2-0.8-0.2-1.2
	c0-0.4,0-0.8,0-1.2c0.1-0.3,0.2-0.6,0.4-0.8c0.1-0.2,0.3-0.5,0.5-0.7c0.2-0.2,0.4-0.4,0.5-0.6c0.2-0.2,0.4-0.4,0.6-0.6
	c0.1,0,0.1,0,0.2,0c0-0.1,0.1-0.2,0.2-0.3c0.1-0.1,0.2-0.2,0.3-0.2c0.1-0.1,0.2-0.1,0.3-0.2c0.1-0.1,0.2-0.2,0.2-0.3
	c0.3-0.1,0.5-0.2,0.7-0.3c0.2-0.1,0.4-0.2,0.6-0.4s0.4-0.3,0.6-0.4s0.4-0.2,0.7-0.3c0.1-0.1,0.2-0.2,0.4-0.3
	c0.2-0.1,0.3-0.1,0.4-0.2c0.2-0.1,0.3-0.1,0.4-0.2c0.1-0.1,0.3-0.2,0.3-0.3c0.1,0.1,0.2,0.1,0.3,0.1c0.1,0,0.2-0.1,0.3-0.1
	c0.1,0,0.1,0,0.2,0s0.1,0.1,0.1,0.1c0,0,0.1,0.1,0.1,0.1c0,0,0.1,0,0.1-0.1c0.1,0,0.1,0,0.1,0.1c0,0.1-0.1,0.1-0.1,0.1
	c0.1,0,0.2,0,0.3,0.1c0.1,0.1,0.2,0.1,0.3,0.1c0.1,0.1,0.1,0.1,0,0.1c0,0,0,0.1,0,0.2c0.4,0.1,0.6,0.3,0.7,0.6
	c0.1,0.2,0.1,0.5,0,0.8c-0.1,0.3-0.2,0.5-0.5,0.8c-0.2,0.2-0.5,0.4-0.8,0.5c-0.3,0.1-0.6,0.2-0.9,0.3c-0.3,0.1-0.6,0.2-0.8,0.3
	c-0.3,0.1-0.5,0.2-0.7,0.4c-0.2,0.1-0.4,0.3-0.6,0.5c-0.3,0.1-0.6,0.2-0.8,0.4c-0.2,0.2-0.5,0.3-0.7,0.5c-0.2,0.2-0.4,0.4-0.6,0.6
	c-0.2,0.2-0.4,0.4-0.6,0.6c0,0.2,0,0.3-0.1,0.4c-0.1,0.1-0.1,0.2-0.2,0.3c0,0.2,0.1,0.4,0.1,0.5c0.1,0.1,0.2,0.3,0.2,0.4
	c0.9,0.3,1.8,0.4,2.7,0.5c1,0.1,1.9,0.1,2.9,0.1c0.1,0.1,0.2,0.3,0.3,0.4c0.1,0.1,0.2,0.2,0.3,0.3c0.1,0.1,0.2,0.3,0.2,0.4
	c0.1,0.2,0.1,0.3,0,0.6c-0.2,0.2-0.4,0.4-0.6,0.5c-0.2,0.2-0.4,0.3-0.6,0.5c-0.1,0-0.2,0-0.4,0c-0.1,0-0.3,0-0.4,0
	c-0.1,0-0.3,0-0.4,0c-0.1,0-0.3,0-0.4,0.1c-0.7,0-1.4-0.1-2.1-0.2c-0.7-0.2-1.4-0.3-2-0.5c-0.1-0.1-0.2-0.3-0.4-0.4
	C116,10.8,115.9,10.7,115.6,10.7z M134.2,7.2c0,0.1,0,0.3,0,0.4s0.1,0.2,0.1,0.4c0.1,0.1,0.1,0.2,0.1,0.3c0,0.1,0.1,0.2,0.1,0.4
	c0,0.2,0,0.3,0,0.5c0,0.2-0.1,0.3-0.1,0.5c-0.1,0.2-0.1,0.3-0.2,0.5c-0.1,0.1-0.2,0.2-0.3,0.3c-0.2,0.2-0.3,0.3-0.6,0.5
	c-0.2,0.1-0.4,0.2-0.6,0.4c-0.1,0.1-0.3,0.1-0.4,0.2c-0.1,0-0.3,0.1-0.4,0.1c-0.1,0.1-0.3,0.1-0.4,0.2c-0.2,0.1-0.3,0.1-0.5,0.2
	c-0.2,0.1-0.3,0.1-0.5,0.1c-0.2,0-0.3,0-0.5,0c-0.3,0.1-0.6,0.2-1,0.2c-0.3,0-0.7,0-1.1-0.1c-0.4,0.1-0.8,0-1.1,0
	c-0.3-0.1-0.6-0.2-0.9-0.4c-0.2-0.2-0.5-0.4-0.7-0.7c-0.2-0.3-0.3-0.6-0.5-0.8c-0.1-0.6-0.1-1.2,0.1-1.7c0.1-0.5,0.3-1,0.6-1.4
	c0.2-0.4,0.5-0.8,0.8-1.2c0.3-0.4,0.6-0.7,0.9-1.1c0.1,0,0.1,0,0.1,0c0,0,0.1-0.1,0.1-0.1c0-0.1,0.1-0.1,0.1-0.1
	c0,0,0.1-0.1,0.1-0.1c0.1-0.2,0.2-0.3,0.3-0.4c0.2-0.1,0.3-0.2,0.4-0.4c0.1,0,0.2-0.1,0.2-0.1c0.1,0,0.1-0.1,0.2-0.1
	c0.1-0.1,0.1-0.1,0.2-0.1c0.1-0.1,0.1-0.1,0.2-0.1V3.2c0.2-0.1,0.3-0.2,0.4-0.3c0.1-0.1,0.2-0.3,0.3-0.4c0.1,0,0.2,0,0.2,0
	c0.1,0,0.2,0,0.3,0c0.1-0.2,0.2-0.3,0.2-0.3c0.1-0.1,0.2-0.2,0.3-0.2c0.1,0.1,0.3,0.1,0.4,0.1c0.2,0,0.3,0.1,0.4,0.2
	c0,0.1,0,0.2,0.1,0.3c0.1,0.1,0.1,0.1,0.2,0.2c0.1,0,0.1,0.1,0.2,0.1c0.1,0.1,0.1,0.1,0.1,0.2c0,0,0.1,0,0.1,0c0,0,0.1,0,0.1,0
	c0,0.2,0.1,0.3,0.1,0.3c0,0,0.1,0.1,0.1,0.3c-0.1,0.1-0.1,0.2-0.1,0.3c0,0.1-0.1,0.2-0.2,0.2c0,0.1,0,0.1,0.1,0.1
	c0.1,0,0.1,0,0.1,0.1c0,0.1,0,0.2,0,0.2c0.3,0.4,0.5,0.9,0.7,1.3C133.7,6.4,133.9,6.8,134.2,7.2L134.2,7.2z M132.2,8.8
	c0-0.1,0.1-0.2,0.2-0.3c0.1-0.1,0.1-0.2,0.1-0.3c-0.1-0.1-0.1-0.2-0.1-0.2c0-0.1,0-0.1,0-0.2c-0.2-0.3-0.4-0.7-0.6-1.1
	c-0.2-0.4-0.4-0.7-0.6-1.1c0,0-0.1,0.1-0.1,0.1s-0.1,0-0.2,0c0,0.1-0.1,0.2-0.1,0.2c-0.1,0-0.1,0-0.2,0c-0.1,0-0.1,0-0.2,0
	c-0.1,0-0.1-0.1-0.2-0.1c-0.3,0.2-0.6,0.5-0.9,0.7c-0.3,0.2-0.6,0.5-0.8,0.8c0,0-0.1,0-0.1,0c0,0,0,0-0.1,0
	c-0.1,0.2-0.2,0.4-0.3,0.6c-0.1,0.2-0.2,0.3-0.4,0.5c-0.1,0.2-0.2,0.4-0.3,0.6c-0.1,0.2-0.1,0.4-0.1,0.7c0.2,0.2,0.4,0.2,0.6,0.3
	c0.2,0,0.5,0,0.8,0c0.3,0,0.5-0.1,0.8-0.1c0.3-0.1,0.5-0.1,0.7-0.1c0.5-0.1,0.8-0.2,1.2-0.4C131.5,9.1,131.8,8.9,132.2,8.8
	L132.2,8.8z M146.9,11.8c-0.1,0.1-0.2,0.1-0.3,0.1c-0.1,0-0.2,0.1-0.3,0.1c-0.4-0.3-0.6-0.9-0.7-1.6c0-0.8,0.2-1.8,0.5-3
	c0.1,0,0.1-0.1,0.1-0.2L146,7c0,0-0.1,0-0.1,0c0,0-0.1,0-0.1,0.1c-0.3,0.2-0.6,0.4-0.9,0.6c-0.3,0.2-0.7,0.4-1.1,0.6
	c-0.4,0.2-0.7,0.3-1.1,0.5c-0.4,0.1-0.7,0.2-1.1,0.2c-0.9,0-1.6-0.5-2-1.4l-0.1-0.2l-0.1,0.2c0,0-0.1,0.1-0.1,0.3
	c-0.1,0.1-0.1,0.3-0.2,0.5c-0.1,0.2-0.1,0.4-0.2,0.5c0,0.2-0.1,0.3,0,0.5c-0.1,0.1-0.2,0.2-0.3,0.3c-0.1,0.1-0.2,0.3-0.2,0.4
	c0,0.1,0,0.2,0,0.2c0,0.1-0.1,0.2-0.1,0.2c0,0.1-0.1,0.1-0.1,0.2c0,0-0.1,0.1-0.1,0.1c0,0.1,0,0.1,0,0.2c0,0.1,0,0.1,0,0.2
	c0,0.1,0,0.1,0,0.2c-0.2,0.4-0.3,0.6-0.4,0.7c-0.1,0.1-0.3,0.2-0.4,0.2c-0.1,0-0.2,0-0.4,0c-0.1-0.2-0.3-0.4-0.4-0.6
	c-0.1-0.3-0.2-0.6-0.3-0.9c-0.1-0.3-0.1-0.6-0.1-0.9c0-0.3,0.1-0.6,0.2-0.8c0,0,0-0.1,0.1-0.3c0.1-0.2,0.2-0.5,0.3-0.8
	c0.1-0.3,0.3-0.7,0.5-1.1c0.2-0.4,0.3-0.8,0.5-1.1c0.2-0.4,0.3-0.7,0.5-1c0.2-0.3,0.3-0.6,0.4-0.7c0.1-0.1,0.2-0.2,0.2-0.4
	c0.1-0.1,0.1-0.2,0.2-0.3c0.2-0.3,0.4-0.6,0.6-0.8c0.2-0.2,0.4-0.4,0.8-0.5c0.2,0.1,0.4,0.2,0.5,0.3l0,0.2c0,0.1,0.1,0.2,0.2,0.2
	c0.1,0,0.2,0.1,0.3,0.1c0.1,0,0.2,0,0.3,0.1c0.1,0.1,0.1,0.2,0.2,0.3c0.1,0.1,0.2,0.3,0.2,0.4c0.1,0.1,0.2,0.2,0.2,0.4
	c0.1,0.1,0.1,0.2,0.1,0.4c0,0.1,0,0.3-0.1,0.4l0,0.2c0.1,0.1,0.1,0.2,0,0.4c0,0.1,0,0.2,0,0.2c0,0.1,0,0.2,0,0.3
	c0.2,0.2,0.4,0.2,0.5,0.2c0.2,0,0.3,0,0.5-0.1c0.2-0.1,0.3-0.2,0.4-0.3c0.1-0.1,0.2-0.1,0.3-0.2c0.1-0.1,0.2-0.1,0.3-0.1
	c0.2-0.2,0.4-0.3,0.5-0.5c0.2-0.1,0.3-0.3,0.5-0.4c0.3-0.3,0.6-0.5,0.9-0.8c0.3-0.3,0.5-0.7,0.7-1.1c0.1-0.1,0.2-0.1,0.3-0.1
	s0.2,0,0.4,0.1c0.1,0.1,0.3,0.1,0.4,0.2c0,0,0.1,0,0.1,0c0,0,0.1,0,0.1,0c0,0.1,0,0.2,0.1,0.3c0,0,0.1,0.1,0.1,0.1c0,0,0,0,0,0
	c0.2,0.1,0.3,0.2,0.3,0.3c0.1,0.2,0.2,0.4,0.4,0.6c0,0.1,0,0.2,0,0.3c0,0.1,0.1,0.2,0.1,0.3c0,0,0,0.1,0,0.1c0,0,0,0.1,0,0.1l-0.3,0
	l0,0.3c0,0.2,0,0.3,0,0.5c0,0.2-0.1,0.3-0.2,0.4c0,0.3,0,0.5,0,0.7c0,0.2,0,0.3,0,0.4c0,0.1-0.1,0.3-0.1,0.4c0,0.1-0.1,0.2-0.1,0.4
	c0,0.7,0,1.3-0.2,1.9c-0.2,0.6-0.4,1.1-0.6,1.6c0,0.1,0,0.1-0.1,0.2c0,0.1,0,0.1-0.1,0.2c-0.1,0-0.2,0.1-0.3,0.1
	C147,11.7,147,11.7,146.9,11.8L146.9,11.8z M155.8,2.1c0.5,0.1,0.9,0.1,1.2,0.3c0.4,0.1,0.7,0.3,0.9,0.5c0.2,0.3,0.3,0.6,0.5,0.9
	c0.2,0.3,0.3,0.6,0.4,1c0.1,0.3,0.1,0.7,0.1,1c0,0.4-0.1,0.7-0.2,1.1c-0.3,0.4-0.7,0.7-1.1,1C157,8,156.5,8.2,156,8.4
	c-0.5,0.2-1.1,0.3-1.6,0.4c-0.6,0.1-1.1,0.2-1.6,0.3c0,0.2,0,0.5,0,0.8c0,0.3,0,0.5-0.1,0.8c0,0.3-0.1,0.5-0.2,0.8s-0.2,0.5-0.4,0.7
	c-0.2,0-0.4,0-0.6,0.1c-0.2,0.1-0.4,0.1-0.5,0.1c-0.1,0-0.1-0.1-0.2-0.1c-0.1,0-0.1-0.1-0.2-0.1c0-0.1,0-0.2-0.1-0.3
	c-0.1-0.1-0.2-0.2-0.2-0.4c-0.1-0.1-0.1-0.2-0.2-0.3c0-0.1,0-0.2,0.2-0.3c-0.1-0.1-0.1-0.2-0.1-0.3c0.1-0.1,0.1-0.3,0.2-0.5
	c0.1-0.2,0.1-0.4,0.1-0.7c0-0.2,0.1-0.4,0-0.6c0-0.2-0.1-0.3-0.3-0.4c0,0,0,0,0.1,0s0.1,0,0.1,0c-0.1-0.1-0.1-0.2-0.2-0.3
	c0-0.1,0-0.2-0.1-0.3c0-0.1,0-0.1,0-0.1c0,0,0-0.1,0.1,0c0-0.2,0-0.4,0-0.6c0-0.2,0.1-0.3,0.2-0.5c0.1-0.2,0.2-0.3,0.3-0.5
	c0.1-0.2,0.2-0.3,0.3-0.5c0.1,0,0.1,0,0.1,0c0,0,0.1,0,0.1,0c0.1-0.1,0.2-0.2,0.3-0.3c0.1-0.1,0.1-0.3,0.1-0.4
	c0.1-0.2,0.2-0.5,0.3-0.7c0.1-0.2,0.2-0.5,0.4-0.6s0.3-0.4,0.4-0.5c0.2-0.2,0.3-0.3,0.5-0.3c0.1-0.1,0.3-0.2,0.5-0.3
	c0.2-0.1,0.4-0.2,0.6-0.2c0.2-0.1,0.5-0.1,0.7-0.1c0.2,0,0.5,0,0.6,0.1C155.7,2.2,155.7,2.2,155.8,2.1
	C155.7,2.1,155.7,2.1,155.8,2.1L155.8,2.1z M155.1,5.9c0.3-0.1,0.6-0.2,0.9-0.3c0.3-0.1,0.6-0.2,0.8-0.4c-0.1-0.1-0.3-0.2-0.6-0.3
	c-0.2-0.1-0.5-0.2-0.8-0.2c-0.3,0-0.6,0-0.9,0.1c-0.3,0.1-0.5,0.2-0.8,0.4c-0.1,0.2-0.1,0.4-0.2,0.5c0,0.1-0.1,0.2-0.2,0.4
	c0,0.1,0.1,0.1,0.1,0.1c0.1,0,0.1,0.1,0.1,0.1c0.2-0.1,0.5-0.2,0.7-0.2C154.6,6.1,154.8,6,155.1,5.9L155.1,5.9z M161.5,10.4
	c-0.1,0.4-0.2,0.8-0.3,1c-0.1,0.2-0.2,0.4-0.4,0.7c-0.1,0-0.2,0-0.3,0c-0.1,0.1-0.1,0.1-0.2,0.1c-0.1,0-0.2,0-0.2,0
	c0,0-0.1,0-0.1-0.1c0,0-0.1,0-0.1-0.1c0,0-0.1,0-0.2,0c0-0.1,0-0.2-0.1-0.2c0-0.1-0.1-0.1-0.2-0.1c0-0.1,0-0.2,0-0.2
	c0-0.1,0-0.1,0-0.2c0-0.1,0-0.1,0-0.1c0-0.1,0-0.1,0-0.2c-0.1,0-0.1,0-0.1-0.1c0-0.1-0.1-0.2-0.1-0.2c0-0.2,0.1-0.4,0.1-0.6
	c0-0.2,0.1-0.3,0.1-0.5c0.1-0.2,0.1-0.3,0.1-0.5s0-0.3,0-0.5c0,0,0.1,0,0.1,0c0-0.1,0-0.1,0-0.2c0-0.1,0-0.2,0-0.2
	c0-0.1,0-0.2,0-0.2c0.1-0.3,0.2-0.6,0.3-0.9c0.1-0.3,0.1-0.6,0.2-0.9c0.1-0.3,0.1-0.6,0.2-0.9c0.1-0.3,0.2-0.5,0.3-0.8
	c0.1,0,0.2,0,0.4,0c0.2,0,0.2,0.1,0.3,0.2c0.3-0.2,0.5-0.5,0.7-0.8c0.2-0.3,0.4-0.6,0.7-0.9s0.5-0.6,0.7-0.8
	c0.3-0.2,0.6-0.4,1.1-0.4c0.2,0.2,0.5,0.3,0.7,0.5c0.3,0.2,0.5,0.4,0.7,0.6c0.1,0,0.2,0.1,0.2,0.1c0.1,0,0.1,0.1,0.2,0.1v0.2
	c0.1,0.1,0.2,0.3,0.3,0.4c0.1,0.2,0.2,0.3,0.2,0.5c0.1,0.2,0.1,0.4,0.2,0.5c0.1,0.2,0.1,0.3,0.2,0.5c0,0.1,0,0.1,0,0.1
	c0,0,0,0.1,0,0.1c0,0,0,0.1,0,0.1c0,0,0,0.1,0,0.2c0,0.5-0.2,0.9-0.5,1.1c-0.3,0.3-0.6,0.5-1,0.7c-0.4,0.2-0.8,0.3-1.2,0.5
	c-0.4,0.1-0.8,0.3-1.2,0.4c0,0,0,0.1,0,0.1c0,0,0.1,0,0,0.1c0.3,0.2,0.5,0.3,0.6,0.4c0.2,0.1,0.3,0.2,0.4,0.2
	c0.1,0.1,0.3,0.1,0.4,0.2c0.2,0,0.4,0.1,0.7,0.2c0.3,0.1,0.5,0.1,0.6,0.2c0.2,0,0.3,0.1,0.4,0.1c0.1,0,0.3,0,0.4,0.1
	c0.1,0,0.3,0,0.6,0c0.1,0.1,0.2,0.2,0.2,0.4c0.1,0.1,0.1,0.3,0.1,0.4c0,0.1,0,0.3,0,0.4c0,0.1,0,0.2-0.1,0.3c0,0,0,0,0.1,0
	c0,0,0.1,0,0.1,0c-0.1,0-0.1,0.1-0.2,0.2c0,0.1-0.1,0.1-0.1,0.2c0,0.1-0.1,0.1-0.1,0.2c-0.1,0.1-0.1,0.1-0.2,0.1
	c-0.3,0.1-0.8,0.1-1.3,0c-0.5-0.1-1.1-0.3-1.9-0.6c-0.4-0.2-0.7-0.3-1-0.4c-0.2-0.1-0.4-0.2-0.6-0.3c-0.2-0.1-0.3-0.2-0.5-0.4
	C161.8,10.7,161.7,10.6,161.5,10.4L161.5,10.4z M163.8,4.8c-0.1,0.2-0.3,0.3-0.4,0.5c-0.1,0.1-0.3,0.3-0.4,0.4
	c-0.1,0.1-0.2,0.3-0.4,0.5c-0.1,0.2-0.2,0.4-0.2,0.6c0.4,0,0.8-0.1,1.2-0.3c0.4-0.2,0.8-0.3,1.2-0.5c0-0.3-0.2-0.6-0.4-0.8
	C164.2,5,164,4.9,163.8,4.8L163.8,4.8z M177.3,3c0,0.1,0,0.1,0,0.2c0,0,0,0.1,0,0.1c0,0,0,0.1,0,0.1c0,0,0,0.1,0,0.2
	c-0.2,0.4-0.5,0.6-0.8,0.8c-0.3,0.1-0.6,0.2-1,0.3c-0.3,0.1-0.7,0.1-1.1,0.2c-0.4,0.1-0.7,0.2-1.1,0.4c-0.1-0.1-0.3-0.1-0.4,0
	c-0.1,0.1-0.3,0.1-0.5,0c-0.1,0.1-0.1,0.1-0.2,0.1c-0.1,0-0.2,0-0.3,0.1c0,0.1,0.1,0.2,0,0.3c0,0.1,0,0.2,0,0.2c0.4,0,0.8,0,1.2,0
	c0.5,0,0.9-0.1,1.4-0.1c0,0.1,0,0.1,0,0.1c0,0,0,0,0,0.1c0.1,0.1,0.2,0.1,0.2,0.2c0.1,0.1,0.2,0.2,0.2,0.2s0.2,0.1,0.2,0.2
	c0.1,0,0.2,0.1,0.3,0c0,0.1,0.1,0.2,0.1,0.3c0,0.1,0,0.2,0,0.3c-0.2,0.1-0.3,0.2-0.5,0.4c-0.2,0.1-0.4,0.2-0.6,0.3
	c-0.2,0.1-0.4,0.2-0.6,0.2c-0.2,0.1-0.4,0.1-0.7,0.1c-0.1,0-0.1,0-0.1,0c0,0-0.1,0-0.1,0c-0.1,0.1-0.2,0.1-0.4,0c-0.2,0-0.3,0-0.4,0
	c-0.1-0.1-0.3-0.1-0.4-0.1c-0.2,0-0.3,0-0.4-0.1c-0.2,0.2-0.3,0.5-0.5,0.7c-0.1,0.3-0.3,0.5-0.4,0.8c0.4,0.1,0.7,0.1,0.9,0.1
	c0.2,0,0.5,0,0.7,0c0.2,0,0.4-0.1,0.7-0.1c0.2,0,0.5,0,0.9,0c0.2-0.1,0.5-0.2,0.8-0.2c0.3,0,0.6-0.1,0.8-0.2c0.1,0,0.2,0.1,0.2,0.2
	c0.1,0.1,0.1,0.2,0.2,0.2c0.1,0.1,0.1,0.1,0.2,0.2s0.1,0.1,0.2,0.1c0,0,0.1,0.1,0.1,0.2c0,0.1,0,0.1,0,0.2c0,0.1,0,0.1,0,0.1
	c0,0,0.1,0,0.1,0c-0.2,0.4-0.4,0.6-0.6,0.8c-0.2,0.2-0.4,0.3-0.7,0.4c-0.3,0.1-0.6,0.2-0.9,0.2c-0.3,0.1-0.7,0.1-1.1,0.2
	c-0.1,0-0.2,0-0.2,0c-0.1,0-0.1,0-0.2,0c-0.2,0.1-0.5,0.1-0.9,0.1c-0.3,0-0.7,0.1-1.1,0s-0.7-0.1-1-0.1c-0.3-0.1-0.6-0.2-0.8-0.4
	c-0.1-0.1-0.1-0.2-0.2-0.3c0-0.1-0.1-0.2-0.2-0.2c0-0.1,0-0.3-0.1-0.5s-0.1-0.4-0.1-0.5c0-0.2-0.1-0.4-0.1-0.6c0-0.2,0-0.4,0-0.5
	c0-0.2,0.1-0.3,0.2-0.4c0.1-0.1,0.1-0.3,0.1-0.4c0.1,0,0.1,0,0.1-0.1c0-0.1,0.1-0.1,0.1-0.1c0.1-0.2,0.1-0.4,0.2-0.6
	s0.2-0.3,0.2-0.5c0.1-0.2,0.2-0.3,0.2-0.5c0.1-0.2,0.2-0.4,0.2-0.6c-0.2-0.1-0.3-0.3-0.3-0.5c-0.1-0.2-0.1-0.3-0.1-0.5
	c0-0.2-0.1-0.3-0.1-0.5c0-0.2-0.1-0.4-0.1-0.6c0.1-0.2,0.2-0.3,0.4-0.4c0.2-0.1,0.3-0.2,0.5-0.3c0.2-0.1,0.4-0.1,0.6-0.2
	c0.2,0,0.4-0.1,0.7-0.1c0.4-0.1,0.8-0.2,1.1-0.3c0.3-0.1,0.7-0.1,1-0.2c0.3-0.1,0.7-0.1,1-0.1s0.8-0.1,1.2-0.2
	c0.1,0.1,0.2,0.1,0.3,0.1c0-0.1,0.1-0.1,0.1-0.1c0.1,0,0.1,0,0.1-0.1c0.1,0.2,0.2,0.3,0.4,0.5C177,2.8,177.1,2.9,177.3,3L177.3,3z
	 M177.7,4.8c0.1-0.2,0.2-0.4,0.4-0.6c0.2-0.2,0.4-0.3,0.6-0.4c0.2-0.1,0.4-0.2,0.6-0.3c0.2-0.1,0.4-0.1,0.6-0.2
	c0.4-0.2,0.9-0.4,1.4-0.5c0.5-0.2,1-0.3,1.5-0.5c0.5-0.1,1-0.2,1.6-0.2c0.5,0,1.1,0,1.7,0.2c0,0.1,0.1,0.2,0.1,0.3
	c0.1,0.1,0.1,0.2,0.2,0.3c0.1,0.1,0.1,0.2,0.2,0.3c0.1,0.1,0.1,0.2,0.1,0.3c0.1,0.1,0.2,0.2,0.3,0.3c0.1,0.1,0.1,0.3,0,0.4
	c-0.1,0.1-0.2,0.2-0.3,0.2c-0.1,0.1-0.2,0.1-0.3,0.2c-0.4-0.1-0.8-0.1-1.2-0.1c-0.4,0-0.8,0.1-1.1,0.1c-0.1-0.1-0.2-0.1-0.4-0.1
	c-0.1,0-0.3,0-0.4,0.1c-0.1,0-0.3,0.1-0.4,0.1c-0.1,0-0.3,0.1-0.4,0c-0.1,0.1-0.2,0.1-0.4,0.2c-0.2,0-0.3,0-0.5,0.1
	c0,0.1,0,0.1,0,0.1c0,0,0,0,0,0.1c0.1,0.1,0.1,0.1,0.2,0.2c0.1,0,0.2,0.1,0.3,0.1c0.1,0,0.2,0.1,0.3,0.1c0.1,0,0.1,0.1,0.2,0.2
	c0.2,0,0.3,0,0.4,0.1c0.1,0.1,0.2,0.2,0.3,0.3c0.1,0.1,0.1,0.2,0.2,0.4c0,0.1,0.1,0.2,0.1,0.3c0,0.1,0.1,0.1,0.1,0.1
	c0,0,0.1,0,0.1,0.1c0,0.1,0.1,0.3,0.2,0.4c0.1,0.1,0.2,0.3,0.3,0.5c0,0.3,0,0.5,0,0.7c0,0.2,0,0.4-0.1,0.6c-0.2,0.4-0.4,0.8-0.7,1.1
	c-0.3,0.3-0.6,0.6-1,0.8c-0.4,0.2-0.7,0.4-1.1,0.6s-0.8,0.3-1.2,0.4c0,0-0.1,0-0.1,0c0,0-0.1,0,0-0.1c-0.1,0.1-0.2,0.1-0.3,0.1
	c-0.1,0-0.2,0-0.3,0c-0.1,0-0.2,0-0.4,0c-0.1,0-0.2,0-0.3,0c-0.1-0.1-0.1-0.2-0.2-0.2c-0.1-0.1-0.1-0.2-0.1-0.3
	c-0.1,0-0.1,0-0.1-0.1c0-0.1,0-0.1,0-0.1c0.1-0.1,0.1-0.2,0.1-0.2c0,0,0,0,0,0c0,0,0,0-0.1,0c0,0,0,0,0-0.1c0-0.1,0.1-0.2,0-0.3
	c0-0.1,0-0.2,0-0.4c0-0.1,0-0.2,0-0.3c0-0.1,0.1-0.2,0.2-0.3c0.4,0,0.7,0,1,0c0.3-0.1,0.6-0.2,0.9-0.3c0.3-0.1,0.6-0.3,0.8-0.4
	c0.3-0.2,0.5-0.3,0.8-0.4c0-0.1,0.1-0.2,0.1-0.2c0.1-0.1,0.1-0.1,0.2-0.2c0.1-0.1,0.1-0.1,0.2-0.2c0.1-0.1,0.1-0.1,0.1-0.2
	c0-0.1,0-0.1-0.1-0.1c0,0-0.1-0.1-0.1-0.1l-0.2,0c-0.2-0.1-0.4-0.2-0.7-0.3c-0.3-0.1-0.5-0.2-0.7-0.3c-0.1,0.1-0.2,0.1-0.3,0
	c-0.1,0-0.2-0.1-0.4-0.1c-0.4,0-0.7-0.1-1.1-0.1c-0.3-0.1-0.7-0.2-1-0.3c0-0.1,0-0.1-0.1-0.1c0,0-0.1-0.1-0.2,0
	c-0.1-0.1-0.1-0.2-0.2-0.2c-0.1-0.1-0.1-0.2-0.2-0.3c0-0.1,0-0.2,0-0.3c0-0.1,0-0.2-0.1-0.3c0-0.1,0.1-0.3,0.1-0.3
	C177.7,5.1,177.7,4.9,177.7,4.8L177.7,4.8z M185.9,4.8c0.1-0.2,0.2-0.4,0.4-0.6c0.2-0.2,0.4-0.3,0.6-0.4c0.2-0.1,0.4-0.2,0.6-0.3
	c0.2-0.1,0.4-0.1,0.6-0.2c0.4-0.2,0.9-0.4,1.4-0.5c0.5-0.2,1-0.3,1.5-0.5c0.5-0.1,1-0.2,1.6-0.2c0.5,0,1.1,0,1.7,0.2
	c0,0.1,0.1,0.2,0.1,0.3c0.1,0.1,0.1,0.2,0.2,0.3c0.1,0.1,0.1,0.2,0.2,0.3c0.1,0.1,0.1,0.2,0.1,0.3c0.1,0.1,0.2,0.2,0.3,0.3
	c0.1,0.1,0.1,0.3,0,0.4c-0.1,0.1-0.2,0.2-0.3,0.2c-0.1,0.1-0.2,0.1-0.3,0.2c-0.4-0.1-0.8-0.1-1.2-0.1c-0.4,0-0.8,0.1-1.1,0.1
	c-0.1-0.1-0.2-0.1-0.4-0.1c-0.1,0-0.3,0-0.4,0.1c-0.1,0-0.3,0.1-0.4,0.1c-0.1,0-0.3,0.1-0.4,0c-0.1,0.1-0.2,0.1-0.4,0.2
	c-0.2,0-0.3,0-0.5,0.1c0,0.1,0,0.1,0,0.1c0,0,0,0,0,0.1c0.1,0.1,0.1,0.1,0.2,0.2c0.1,0,0.2,0.1,0.3,0.1c0.1,0,0.2,0.1,0.3,0.1
	c0.1,0,0.1,0.1,0.2,0.2c0.2,0,0.3,0,0.4,0.1c0.1,0.1,0.2,0.2,0.3,0.3c0.1,0.1,0.1,0.2,0.2,0.4c0,0.1,0.1,0.2,0.1,0.3
	c0,0.1,0.1,0.1,0.1,0.1c0,0,0.1,0,0.1,0.1c0,0.1,0.1,0.3,0.2,0.4c0.1,0.1,0.2,0.3,0.3,0.5c0,0.3,0,0.5,0,0.7c0,0.2,0,0.4-0.1,0.6
	c-0.2,0.4-0.4,0.8-0.7,1.1c-0.3,0.3-0.6,0.6-1,0.8c-0.4,0.2-0.7,0.4-1.1,0.6s-0.8,0.3-1.2,0.4c0,0-0.1,0-0.1,0c0,0-0.1,0,0-0.1
	c-0.1,0.1-0.2,0.1-0.3,0.1c-0.1,0-0.2,0-0.3,0c-0.1,0-0.2,0-0.4,0c-0.1,0-0.2,0-0.3,0c-0.1-0.1-0.1-0.2-0.2-0.2
	c-0.1-0.1-0.1-0.2-0.1-0.3c-0.1,0-0.1,0-0.1-0.1c0-0.1,0-0.1,0-0.1c0.1-0.1,0.1-0.2,0.1-0.2c0,0,0,0,0,0c0,0,0,0-0.1,0
	c0,0,0,0,0-0.1c0-0.1,0.1-0.2,0-0.3c0-0.1,0-0.2,0-0.4c0-0.1,0-0.2,0-0.3c0-0.1,0.1-0.2,0.2-0.3c0.4,0,0.7,0,1,0
	c0.3-0.1,0.6-0.2,0.9-0.3c0.3-0.1,0.6-0.3,0.8-0.4c0.3-0.2,0.5-0.3,0.8-0.4c0-0.1,0.1-0.2,0.1-0.2c0.1-0.1,0.1-0.1,0.2-0.2
	c0.1-0.1,0.1-0.1,0.2-0.2c0.1-0.1,0.1-0.1,0.1-0.2c0-0.1,0-0.1-0.1-0.1c0,0-0.1-0.1-0.1-0.1l-0.2,0c-0.2-0.1-0.4-0.2-0.7-0.3
	c-0.3-0.1-0.5-0.2-0.7-0.3c-0.1,0.1-0.2,0.1-0.3,0c-0.1,0-0.2-0.1-0.4-0.1c-0.4,0-0.7-0.1-1.1-0.1c-0.3-0.1-0.7-0.2-1-0.3
	c0-0.1,0-0.1-0.1-0.1c0,0-0.1-0.1-0.2,0c-0.1-0.1-0.1-0.2-0.2-0.2c-0.1-0.1-0.1-0.2-0.2-0.3c0-0.1,0-0.2,0-0.3c0-0.1,0-0.2-0.1-0.3
	c0-0.1,0.1-0.3,0.1-0.3C185.9,5.1,185.9,4.9,185.9,4.8L185.9,4.8z M202.9,7.2c0,0.1,0,0.3,0,0.4s0.1,0.2,0.1,0.4
	c0.1,0.1,0.1,0.2,0.1,0.3c0,0.1,0.1,0.2,0.1,0.4c0,0.2,0,0.3,0,0.5c0,0.2-0.1,0.3-0.1,0.5c-0.1,0.2-0.1,0.3-0.2,0.5
	c-0.1,0.1-0.2,0.2-0.3,0.3c-0.2,0.2-0.3,0.3-0.6,0.5c-0.2,0.1-0.4,0.2-0.6,0.4c-0.1,0.1-0.3,0.1-0.4,0.2c-0.1,0-0.3,0.1-0.4,0.1
	c-0.1,0.1-0.3,0.1-0.4,0.2c-0.2,0.1-0.3,0.1-0.5,0.2c-0.2,0.1-0.3,0.1-0.5,0.1c-0.2,0-0.3,0-0.5,0c-0.3,0.1-0.6,0.2-1,0.2
	c-0.3,0-0.7,0-1.1-0.1c-0.4,0.1-0.7,0-1.1,0c-0.3-0.1-0.6-0.2-0.9-0.4c-0.2-0.2-0.5-0.4-0.7-0.7c-0.2-0.3-0.3-0.6-0.5-0.8
	c-0.1-0.6-0.1-1.2,0.1-1.7c0.1-0.5,0.3-1,0.6-1.4c0.2-0.4,0.5-0.8,0.8-1.2c0.3-0.4,0.6-0.7,0.9-1.1c0.1,0,0.1,0,0.1,0
	c0,0,0.1-0.1,0.1-0.1c0-0.1,0.1-0.1,0.1-0.1c0,0,0.1-0.1,0.1-0.1c0.1-0.2,0.2-0.3,0.3-0.4c0.2-0.1,0.3-0.2,0.4-0.4
	c0.1,0,0.2-0.1,0.2-0.1c0.1,0,0.1-0.1,0.2-0.1c0.1-0.1,0.1-0.1,0.2-0.1c0.1-0.1,0.1-0.1,0.2-0.1V3.2c0.2-0.1,0.3-0.2,0.4-0.3
	c0.1-0.1,0.2-0.3,0.3-0.4c0.1,0,0.2,0,0.2,0c0.1,0,0.2,0,0.3,0c0.1-0.2,0.2-0.3,0.2-0.3c0.1-0.1,0.2-0.2,0.3-0.2
	c0.1,0.1,0.3,0.1,0.4,0.1c0.2,0,0.3,0.1,0.4,0.2c0,0.1,0,0.2,0.1,0.3c0.1,0.1,0.1,0.1,0.2,0.2c0.1,0,0.1,0.1,0.2,0.1
	c0.1,0.1,0.1,0.1,0.1,0.2c0,0,0.1,0,0.1,0c0,0,0.1,0,0.1,0c0,0.2,0.1,0.3,0.1,0.3c0,0,0.1,0.1,0.1,0.3c-0.1,0.1-0.1,0.2-0.1,0.3
	c0,0.1-0.1,0.2-0.2,0.2c0,0.1,0,0.1,0.1,0.1c0.1,0,0.1,0,0.1,0.1c0,0.1,0,0.2,0,0.2c0.3,0.4,0.5,0.9,0.7,1.3
	C202.4,6.4,202.7,6.8,202.9,7.2L202.9,7.2z M200.9,8.8c0-0.1,0.1-0.2,0.2-0.3c0.1-0.1,0.1-0.2,0.1-0.3c-0.1-0.1-0.1-0.2-0.1-0.2
	c0-0.1,0-0.1,0-0.2c-0.2-0.3-0.4-0.7-0.6-1.1c-0.2-0.4-0.4-0.7-0.6-1.1c0,0-0.1,0.1-0.1,0.1s-0.1,0-0.2,0c0,0.1-0.1,0.2-0.1,0.2
	c-0.1,0-0.1,0-0.2,0c-0.1,0-0.1,0-0.2,0c-0.1,0-0.1-0.1-0.2-0.1c-0.3,0.2-0.6,0.5-0.9,0.7c-0.3,0.2-0.6,0.5-0.8,0.8c0,0-0.1,0-0.1,0
	c0,0,0,0-0.1,0c-0.1,0.2-0.2,0.4-0.3,0.6c-0.1,0.2-0.2,0.3-0.4,0.5c-0.1,0.2-0.2,0.4-0.3,0.6c-0.1,0.2-0.1,0.4-0.1,0.7
	c0.2,0.2,0.4,0.2,0.6,0.3c0.2,0,0.5,0,0.8,0c0.3,0,0.5-0.1,0.8-0.1c0.3-0.1,0.5-0.1,0.7-0.1c0.5-0.1,0.8-0.2,1.2-0.4
	C200.2,9.1,200.6,8.9,200.9,8.8L200.9,8.8z M207,10.4c-0.1,0.4-0.2,0.8-0.3,1c-0.1,0.2-0.2,0.4-0.4,0.7c-0.1,0-0.2,0-0.3,0
	c-0.1,0.1-0.1,0.1-0.2,0.1c-0.1,0-0.2,0-0.2,0c0,0-0.1,0-0.1-0.1c0,0-0.1,0-0.1-0.1c0,0-0.1,0-0.2,0c0-0.1,0-0.2-0.1-0.2
	c0-0.1-0.1-0.1-0.2-0.1c0-0.1,0-0.2,0-0.2c0-0.1,0-0.1,0-0.2c0-0.1,0-0.1,0-0.1c0-0.1,0-0.1,0-0.2c-0.1,0-0.1,0-0.1-0.1
	c0-0.1-0.1-0.2-0.1-0.2c0-0.2,0.1-0.4,0.1-0.6c0-0.2,0.1-0.3,0.1-0.5c0.1-0.2,0.1-0.3,0.1-0.5s0-0.3,0-0.5c0,0,0.1,0,0.1,0
	c0-0.1,0-0.1,0-0.2c0-0.1,0-0.2,0-0.2c0-0.1,0-0.2,0-0.2c0.1-0.3,0.2-0.6,0.3-0.9c0.1-0.3,0.1-0.6,0.2-0.9c0.1-0.3,0.1-0.6,0.2-0.9
	c0.1-0.3,0.2-0.5,0.3-0.8c0.1,0,0.2,0,0.4,0c0.2,0,0.2,0.1,0.3,0.2c0.3-0.2,0.5-0.5,0.7-0.8c0.2-0.3,0.4-0.6,0.7-0.9
	s0.5-0.6,0.7-0.8c0.3-0.2,0.6-0.4,1.1-0.4c0.2,0.2,0.5,0.3,0.7,0.5c0.3,0.2,0.5,0.4,0.7,0.6c0.1,0,0.2,0.1,0.2,0.1
	c0.1,0,0.1,0.1,0.2,0.1v0.2c0.1,0.1,0.2,0.3,0.3,0.4c0.1,0.2,0.2,0.3,0.2,0.5c0.1,0.2,0.1,0.4,0.2,0.5c0.1,0.2,0.1,0.3,0.2,0.5
	c0,0.1,0,0.1,0,0.1c0,0,0,0.1,0,0.1c0,0,0,0.1,0,0.1c0,0,0,0.1,0,0.2c0,0.5-0.2,0.9-0.5,1.1c-0.3,0.3-0.6,0.5-1,0.7
	c-0.4,0.2-0.8,0.3-1.2,0.5c-0.4,0.1-0.8,0.3-1.2,0.4c0,0,0,0.1,0,0.1c0,0,0.1,0,0,0.1c0.3,0.2,0.5,0.3,0.6,0.4
	c0.2,0.1,0.3,0.2,0.4,0.2c0.1,0.1,0.3,0.1,0.4,0.2c0.2,0,0.4,0.1,0.7,0.2c0.3,0.1,0.5,0.1,0.6,0.2c0.2,0,0.3,0.1,0.4,0.1
	c0.1,0,0.3,0,0.4,0.1c0.1,0,0.3,0,0.6,0c0.1,0.1,0.2,0.2,0.2,0.4c0.1,0.1,0.1,0.3,0.1,0.4c0,0.1,0,0.3,0,0.4c0,0.1,0,0.2-0.1,0.3
	c0,0,0,0,0.1,0c0,0,0.1,0,0.1,0c-0.1,0-0.1,0.1-0.2,0.2c0,0.1-0.1,0.1-0.1,0.2c0,0.1-0.1,0.1-0.1,0.2c-0.1,0.1-0.1,0.1-0.2,0.1
	c-0.3,0.1-0.8,0.1-1.3,0c-0.5-0.1-1.1-0.3-1.9-0.6c-0.4-0.2-0.7-0.3-1-0.4c-0.2-0.1-0.4-0.2-0.6-0.3c-0.2-0.1-0.3-0.2-0.5-0.4
	C207.4,10.7,207.2,10.6,207,10.4L207,10.4z M209.3,4.8c-0.1,0.2-0.3,0.3-0.4,0.5c-0.1,0.1-0.3,0.3-0.4,0.4c-0.1,0.1-0.2,0.3-0.4,0.5
	c-0.1,0.2-0.2,0.4-0.2,0.6c0.4,0,0.8-0.1,1.2-0.3c0.4-0.2,0.8-0.3,1.2-0.5c0-0.3-0.2-0.6-0.4-0.8C209.7,5,209.5,4.9,209.3,4.8
	L209.3,4.8z"/>
<g>
	<g>
		<path class="st1" d="M66.4,8.8c-0.2,0.8-0.6,1.9-0.9,2.4c-0.5,0.1-1.7,0.4-2.9,0.4c-3.8,0-5.8-2.5-5.8-5.3c0-3.3,2.5-5.5,6-5.5
			c1.4,0,2.5,0.3,3,0.4c0.1,0.7,0.2,1.7,0.3,2.5l-0.5,0.1C65.4,2.7,65,2,64.2,1.7c-0.4-0.2-1.1-0.3-1.7-0.3c-2.6,0-4,1.9-4,4.6
			c0,3.1,1.6,5,4.2,5c1.6,0,2.4-0.7,3.2-2.3L66.4,8.8z"/>
		<path class="st1" d="M76.3,3.5c-0.1-0.5-0.3-1-0.5-1.3c-0.3-0.4-0.4-0.5-1.3-0.5h-1.6v7.8c0,1.2,0.1,1.4,1.6,1.5v0.4h-4.6v-0.4
			c1.5-0.1,1.6-0.3,1.6-1.5V1.6h-1.4c-0.9,0-1.1,0.1-1.4,0.6c-0.2,0.3-0.3,0.7-0.5,1.3h-0.5c0.1-1,0.2-2,0.2-2.9h0.4
			C68.5,1,68.7,1,69.1,1h6.3c0.4,0,0.6-0.1,0.8-0.4h0.4c0,0.7,0.1,1.9,0.1,2.8L76.3,3.5z"/>
	</g>
	<path d="M81.7,6.5v1h-3.9v-1H81.7z"/>
	<g>
		<path d="M90,3.7L88.6,4c0.1-0.3,0.1-0.5,0.1-0.7c0-1.2-0.7-1.9-2.2-1.9c-1.2,0-1.8,0.4-1.8,1.3c0,0.6,0.7,1.2,2,1.6
			c2.6,0.9,3.8,2.2,3.8,3.9c0,1-0.4,1.8-1.1,2.4c-0.7,0.6-1.7,0.9-2.9,0.9c-2.6,0-3.9-1-3.9-3.1c0-0.2,0-0.4,0-0.6l1.5-0.3
			C84,8,84,8.4,84,8.7c0,1.3,0.8,2,2.3,2c1.2,0,1.8-0.5,1.8-1.4c0-0.7-0.7-1.3-2.2-1.9c-2.1-0.8-3.1-2-3.1-3.7c0-1,0.3-1.7,1-2.3
			s1.6-0.9,2.8-0.9C88.9,0.6,90,1.6,90,3.7z"/>
		<path d="M98.9,7.1l1.3,0.3c0,0.3,0,0.5,0,0.7c0,1-0.4,1.9-1.1,2.5c-0.7,0.6-1.7,0.9-3,0.9c-3.1,0-4.7-1.8-4.7-5.3
			c0-1.7,0.5-3,1.4-4.1s2.1-1.6,3.6-1.6c2.3,0,3.4,1.1,3.4,3.3l-1.3,0.6c0-0.3,0-0.6,0-0.7c0-1.6-0.6-2.4-1.9-2.4c-1.3,0-2,1.7-2,5
			c0,2.9,0.7,4.3,2.2,4.3c0.6,0,1.1-0.2,1.5-0.7S99,8.9,99,8.1C99,7.9,98.9,7.5,98.9,7.1z"/>
	</g>
</g>
</svg>
