<?xml version="1.0" encoding="utf-8"?>
<!-- Generator: Adobe Illustrator 26.0.3, SVG Export Plug-In . SVG Version: 6.00 Build 0)  -->
<svg version="1.1"
	 id="svg4" xmlns:inkscape="http://www.inkscape.org/namespaces/inkscape" xmlns:sodipodi="http://sodipodi.sourceforge.net/DTD/sodipodi-0.dtd" xmlns:svg="http://www.w3.org/2000/svg"
	 xmlns="http://www.w3.org/2000/svg" xmlns:xlink="http://www.w3.org/1999/xlink" x="0px" y="0px" viewBox="0 0 25.5 469.4"
	 style="enable-background:new 0 0 25.5 469.4;" xml:space="preserve">
<style type="text/css">
	.st0{opacity:0.6;}
	.st1{fill:#1E2291;}
	.st2{opacity:0.75;}
	.st3{fill:#620084;}
</style>
<sodipodi:namedview  bordercolor="#666666" borderopacity="1.0" fit-margin-bottom="0" fit-margin-left="0" fit-margin-right="0" fit-margin-top="0" id="namedview6" inkscape:current-layer="svg4" inkscape:cx="0" inkscape:cy="234.81438" inkscape:pagecheckerboard="0" inkscape:pageopacity="0.0" inkscape:pageshadow="2" inkscape:window-height="1009" inkscape:window-maximized="1" inkscape:window-width="1920" inkscape:window-x="0" inkscape:window-y="0" inkscape:zoom="2.693617" pagecolor="#cccccc" showgrid="false">
	</sodipodi:namedview>
<g class="st0">
	<path class="st1" d="M21.1,22c-0.8-0.5-1.7-1-2.5-1.3l-2.9-1l-9.5-3.5c-1.1-0.4-2.2-0.9-3.3-1.4c-0.5-0.3-0.8-0.7-0.8-1.2
		c0-0.7,0.3-1.1,1-1.4c2.6-1.1,6.5-2.2,11.4-3.5l3.6-1c1.8-0.5,3-0.8,3.6-0.8c0.4,0,0.7,0.1,1,0.4C22.9,7.5,23,7.8,23,8.2
		c0,0.7-0.4,1.1-1.1,1.3l-2.3,0.5l-4.4,1.3c-3.2,0.8-6,1.7-8.4,2.4l0.2,0.1l9.5,3.5l3.2,1.1c1.3,0.5,2.3,1,2.9,1.6
		c0.3,0.3,0.5,0.6,0.5,1c0,0.3-0.1,0.7-0.4,0.9c-0.3,0.3-0.6,0.4-1,0.4C21.6,22.3,21.3,22.2,21.1,22z"/>
	<path class="st1" d="M19.4,34.8c0-0.6,0.1-1.3,0.2-2.1l0.3-2.1c-2.5-0.2-5-0.3-7.3-0.3c-0.6,0-1.4,0-2.3,0.1
		c-0.9,0-1.7,0.1-2.3,0.1c-0.8,0-1.6,0-2.2-0.1l0.1,4.1c0,0.4-0.1,0.7-0.4,0.9c-0.3,0.2-0.6,0.4-0.9,0.4c-0.4,0-0.7-0.1-1-0.4
		c-0.3-0.2-0.4-0.6-0.4-0.9c0-0.5,0-1.2,0-2.2c0-1,0-1.7,0-2.2c0-0.6-0.1-1.4-0.2-2.6c-0.2-1.1-0.2-2-0.2-2.6c0-0.4,0.1-0.7,0.4-0.9
		c0.3-0.2,0.6-0.4,0.9-0.4c0.4,0,0.7,0.1,1,0.4c0.3,0.2,0.4,0.6,0.4,0.9c0,0.6,0.1,1.5,0.3,2.8c0.7,0.1,1.5,0.1,2.4,0.1
		c0.6,0,1.3,0,2.2-0.1c0.9-0.1,1.6-0.1,2.2-0.1c2,0,4.5,0.1,7.5,0.4l-0.1-1.7l0-1.7c0-0.4,0.1-0.7,0.4-0.9c0.3-0.3,0.6-0.4,1-0.4
		c0.8,0,1.3,0.4,1.3,1.2c0.1,0.7,0.1,2,0.1,4c0,1.7-0.2,3.9-0.6,6.5c-0.1,0.8-0.6,1.2-1.4,1.2c-0.4,0-0.7-0.1-1-0.4
		C19.5,35.5,19.4,35.2,19.4,34.8z"/>
	<path class="st1" d="M3,51.7c0-0.3,0.1-0.6,0.4-0.9c2.8-2.9,4.8-6.1,5.7-9.6l-2.6,0.1l-2.6,0.1c-0.4,0-0.7-0.1-1-0.4
		S2.7,40.3,2.7,40s0.1-0.7,0.4-0.9c0.3-0.2,0.6-0.4,1-0.4c0.7,0,1.7,0,3.1-0.1c1.4-0.1,2.4-0.1,3.1-0.1c0.8,0,2,0.1,3.6,0.3
		c1.6,0.2,2.8,0.3,3.6,0.3c0.4,0,1.1,0,2-0.1c0.9-0.1,1.5-0.1,2-0.1c0.5,0,0.9,0.1,1.3,0.4c0.5,0.3,0.7,0.8,0.6,1.4L23,43.7
		c-0.1,1.2-0.4,2.2-0.9,3c-1.9,3.5-4.2,5.3-6.9,5.3c-1.3,0-2.5-0.6-3.5-1.8c-0.8-1-1.4-2.2-1.9-3.6c-1.5,2.7-3,4.7-4.6,6.1
		C5,52.9,4.7,53,4.4,53c-0.4,0-0.7-0.1-1-0.4S3,52,3,51.7z M20.3,43.3l0.2-1.9l-1.6,0.1c-0.6,0.1-1.2,0.1-1.6,0.1
		c-0.7,0-1.6-0.1-2.6-0.2l-2.6-0.3c0,0.1,0,0.3,0,0.6c0,0.3,0,0.5,0,0.6c0,2.2,0.3,3.9,0.9,5c0.3,0.5,0.6,0.9,1.1,1.4
		c0.5,0.5,0.9,0.7,1.2,0.7c1.2,0,2.3-0.7,3.4-2.1C19.6,46,20.1,44.7,20.3,43.3z"/>
	<path class="st1" d="M19.7,71.5c0-0.6,0.1-1.6,0.2-3c0.1-1.3,0.1-2.3,0.1-3v-0.9c-1.2,0-3.2,0.1-5.9,0.4c-2.5,0.2-4.5,0.3-5.9,0.3
		c-0.3,0-0.8,0-1.4,0.1s-1.1,0.1-1.4,0.1c-0.6,0-1.1-0.1-1.5-0.3c-0.6-0.2-0.9-0.6-0.9-1.1c0-0.3,0.1-0.7,0.4-0.9
		c0.2-0.3,0.6-0.4,0.9-0.4c0.1,0,0.3,0,0.6,0.1c0.3,0,0.5,0.1,0.6,0.1c0.4,0,1.1,0,1.9-0.1c0.9-0.1,1.5-0.1,1.9-0.1
		c1.2,0,3-0.1,5.3-0.3c2.4-0.2,4.2-0.3,5.3-0.4l0-1.2c0-1.9,0.1-3.4,0.4-4.5c0.2-0.7,0.6-1.1,1.3-1.1c0.4,0,0.7,0.1,0.9,0.3
		c0.3,0.3,0.4,0.6,0.4,1c0,0.3-0.1,1-0.2,2.1c-0.1,0.9-0.2,1.6-0.2,2.1c0,0.5,0,1.3,0,2.4c0,1.1,0,1.9,0,2.4c0,0.7,0,1.7-0.1,3
		c-0.1,1.3-0.1,2.3-0.1,3c0,0.4-0.1,0.7-0.4,0.9c-0.3,0.3-0.6,0.4-1,0.4c-0.4,0-0.7-0.1-0.9-0.4C19.8,72.2,19.7,71.9,19.7,71.5z"/>
	<path class="st1" d="M2.6,82.3c0-2.7,0.8-4.7,2.3-6.1c1.3-1.1,3.1-1.8,5.6-2c1.1-0.1,3.3-0.2,6.6-0.2c1.2,0,2.2,0,3,0.1
		c0.8,0.1,1.3,0.1,1.7,0.2c0.6,0.2,1,0.6,1,1.2c0,0.8-0.7,1.2-2.2,1.2h-7.7c-5.3,0-7.9,1.8-7.9,5.5c0,3.5,4.4,5.2,13.3,5.2
		c0.3,0,0.8,0,1.3,0c0.5,0,0.9,0,1,0c0.5,0,1,0.1,1.4,0.3c0.5,0.2,0.8,0.6,0.8,1.1c0,0.9-0.6,1.3-1.8,1.3c-0.4,0-0.9,0-1.6,0
		c-0.7,0-1.3,0-1.6,0C7.7,90.1,2.6,87.5,2.6,82.3z"/>
	<path class="st1" d="M2.8,108c0-0.8,1-1.5,3.1-2.1c0.8-0.2,2.2-0.5,4.1-0.8c-0.1-0.9-0.3-2.1-0.7-3.5l-0.7-3.5
		c-1.1-0.4-2.8-1.2-5-2.2c-0.5-0.3-0.7-0.7-0.7-1.1c0-0.3,0.1-0.7,0.4-0.9s0.6-0.4,0.9-0.4c0.4,0,2,0.7,4.8,2
		c0.2-0.1,0.5-0.2,0.8-0.2c0.7,0,1.2,0.4,1.4,1.3c1.9,1,4,2.2,6.4,3.8c3.3,2.1,5,3.3,5,3.9c0,0.7-0.5,1.2-1.4,1.4l-4.4,0.8l-9.1,1.9
		l-2.1,0.7c-0.7,0.3-1.2,0.4-1.4,0.4c-0.4,0-0.7-0.1-0.9-0.4C2.9,108.6,2.8,108.3,2.8,108z M17.7,103.4l-6-3.7
		c0.3,1.1,0.6,2.7,1,4.8L17.7,103.4z"/>
	<path class="st1" d="M3.7,124.6c-0.5-1-0.9-2.5-1.2-4.6c-0.3-1.9-0.5-3.5-0.5-4.8c0-0.9,0.1-1.5,0.4-1.9c0.4-0.5,1-0.8,2-0.8
		l4.3,0.3c4,0.2,8.4,0.3,13.3,0.3c0.4,0,0.7,0.1,1,0.4c0.3,0.2,0.4,0.6,0.4,0.9c0,0.4-0.1,0.7-0.4,0.9c-0.3,0.2-0.6,0.4-1,0.4
		c-4.9,0-9.4-0.1-13.4-0.4l-2-0.2c-0.7-0.1-1.4-0.1-1.9-0.1c0,2.3,0.5,5.1,1.6,8.6c0,0.1,0.1,0.3,0.1,0.4c0,0.4-0.1,0.7-0.4,0.9
		c-0.3,0.2-0.6,0.3-0.9,0.3C4.4,125.5,4,125.2,3.7,124.6z"/>
	<path class="st1" d="M2.8,150.3c0-0.8,1-1.5,3.1-2.1c0.8-0.2,2.2-0.5,4.1-0.8c-0.1-0.9-0.3-2.1-0.7-3.5l-0.7-3.5
		c-1.1-0.4-2.8-1.2-5-2.2c-0.5-0.3-0.7-0.7-0.7-1.1c0-0.3,0.1-0.7,0.4-0.9c0.3-0.3,0.6-0.4,0.9-0.4c0.4,0,2,0.7,4.8,2
		c0.2-0.1,0.5-0.2,0.8-0.2c0.7,0,1.2,0.4,1.4,1.3c1.9,1,4,2.2,6.4,3.8c3.3,2.1,5,3.3,5,3.9c0,0.7-0.5,1.2-1.4,1.4l-4.4,0.8l-9.1,1.9
		l-2.1,0.7c-0.7,0.3-1.2,0.4-1.4,0.4c-0.4,0-0.7-0.1-0.9-0.4S2.8,150.6,2.8,150.3z M17.7,145.7l-6-3.7c0.3,1.1,0.6,2.7,1,4.8
		L17.7,145.7z"/>
	<path class="st1" d="M6.1,173.7c-0.4,0-1.1-0.1-2.1-0.2c-0.9-0.1-1.3-0.6-1.3-1.4c0-0.5,0.3-1,0.9-1.7c3.4-3.5,8.2-7.6,14.5-12.2
		l-3-0.1l-3,0c-0.7,0-1.8,0-3.3,0s-2.5,0-3.3,0c-2.3,0-3.5-0.5-3.5-1.4c0-0.5,0.2-0.9,0.5-1.1c0.3-0.3,0.6-0.4,1-0.4
		c0.4,0,0.9,0,1.7,0.1s1.3,0.1,1.7,0.1c0.5,0,1.3,0,2.4,0.1c1.1,0,1.9,0.1,2.4,0.1c0.6,0,1.4,0,2.6,0c1.2,0,2,0,2.6,0
		c0.5,0,1.4-0.1,2.4-0.2c1.1-0.1,1.9-0.2,2.4-0.2c0.4,0,0.8,0.2,1.1,0.5s0.5,0.7,0.5,1.2c0,0.5-0.5,1-1.5,1.7
		c-3.2,2.2-5.9,4.1-8.1,5.9c-2.6,2.1-5,4.3-7.3,6.8c0.4,0,0.9,0,1.7,0l1.6,0c3.8,0,6.9-0.1,9.1-0.4c0.2,0,0.7-0.2,1.4-0.4
		c0.6-0.2,1.1-0.3,1.4-0.3c1,0,1.5,0.5,1.5,1.4c0,1.5-2.8,2.3-8.5,2.3c-1,0-2.4,0-4.3,0S7,173.7,6.1,173.7z"/>
	<path class="st1" d="M2.8,191.2c0-0.8,1-1.5,3.1-2.1c0.8-0.2,2.2-0.5,4.1-0.8c-0.1-0.9-0.3-2.1-0.7-3.5l-0.7-3.5
		c-1.1-0.4-2.8-1.2-5-2.2c-0.5-0.3-0.7-0.7-0.7-1.1c0-0.3,0.1-0.7,0.4-0.9c0.3-0.3,0.6-0.4,0.9-0.4c0.4,0,2,0.7,4.8,2
		c0.2-0.1,0.5-0.2,0.8-0.2c0.7,0,1.2,0.4,1.4,1.3c1.9,1,4,2.2,6.4,3.8c3.3,2.1,5,3.3,5,3.9c0,0.7-0.5,1.2-1.4,1.4l-4.4,0.8l-9.1,1.9
		l-2.1,0.7c-0.7,0.3-1.2,0.4-1.4,0.4c-0.4,0-0.7-0.1-0.9-0.4S2.8,191.5,2.8,191.2z M17.7,186.6l-6-3.7c0.3,1.1,0.6,2.7,1,4.8
		L17.7,186.6z"/>
	<path class="st1" d="M3.7,207.8c-0.5-1-0.9-2.5-1.2-4.6c-0.3-1.9-0.5-3.5-0.5-4.8c0-0.9,0.1-1.5,0.4-1.9c0.4-0.5,1-0.8,2-0.8
		l4.3,0.3c4,0.2,8.4,0.3,13.3,0.3c0.4,0,0.7,0.1,1,0.4c0.3,0.2,0.4,0.6,0.4,0.9c0,0.4-0.1,0.7-0.4,0.9s-0.6,0.4-1,0.4
		c-4.9,0-9.4-0.1-13.4-0.4l-2-0.2c-0.7-0.1-1.4-0.1-1.9-0.1c0,2.3,0.5,5.1,1.6,8.6c0,0.1,0.1,0.3,0.1,0.4c0,0.4-0.1,0.7-0.4,0.9
		c-0.3,0.2-0.6,0.3-0.9,0.3C4.4,208.6,4,208.4,3.7,207.8z"/>
	<path class="st1" d="M2.4,219.6c0-2.5,0.7-4.5,2.2-6.2c1.6-1.8,3.6-2.7,6.1-2.7c3,0,5.8,0.9,8.2,2.7c2.7,2,4.1,4.5,4.1,7.5
		c0,2.9-0.6,5-1.9,6.4c-1.3,1.5-3.5,2.2-6.3,2.2c-3,0-5.7-0.8-8.2-2.5C3.8,225,2.4,222.6,2.4,219.6z M20.3,220.8
		c0-2.1-1.1-3.9-3.2-5.4c-2-1.4-4.1-2.1-6.5-2.1c-1.7,0-3,0.6-4.1,1.9c-1,1.2-1.5,2.7-1.5,4.4c0,2.1,1.1,3.9,3.2,5.2
		c1.9,1.2,4,1.8,6.4,1.8c2.1,0,3.5-0.5,4.4-1.4C19.9,224.4,20.3,222.9,20.3,220.8z"/>
	<path class="st1" d="M11.1,247.5c-2.7-0.5-4.8-1.7-6.4-3.4c-1.6-1.7-2.4-3.8-2.4-6.1c0-2.1,0.6-3.7,1.8-4.8c1.2-1.1,3-1.6,5.4-1.6
		c2.3,0,4.6,0.5,7,1.6c2.4,1.1,4.3,2.4,5.8,4.1c1,1.1,1.5,2.3,1.5,3.5c0,0.8-0.3,1.8-0.8,3.1c-0.6,1.6-1.3,2.4-2.1,2.4
		c-0.4,0-0.7-0.1-1-0.4c-0.3-0.3-0.4-0.6-0.4-0.9c0-0.2,0.1-0.5,0.3-0.8c0.8-1.3,1.2-2.5,1.2-3.4c0-0.7-0.3-1.3-1-2.1
		c-0.3-0.4-1-0.9-1.9-1.5c-2.7-2-5.6-3-8.7-3c-1.6,0-2.8,0.3-3.4,0.8c-0.7,0.5-1.1,1.6-1.1,3c0,1.6,0.5,2.9,1.5,4.1
		c1,1.2,2.5,2.1,4.5,2.5c-0.1-2.4-0.6-4.5-1.4-6.2c-0.1-0.2-0.1-0.4-0.1-0.6c0-0.4,0.1-0.7,0.4-1c0.3-0.2,0.6-0.4,0.9-0.4
		c0.5,0,0.9,0.2,1.1,0.7c1.1,1.9,1.7,5.1,1.7,9.7c0,0.4-0.1,0.7-0.4,0.9c-0.3,0.3-0.6,0.4-1,0.4C11.7,248.2,11.3,248,11.1,247.5z"/>
</g>
<g class="st2">
	<path class="st3" d="M11,282.9l-0.8,2.9c-0.6,0-1.1,0.1-1.5,0.1c-2.3,0-4.1-0.8-5.4-2.5s-2-3.8-2-6.6c0-6.9,3.9-10.3,11.6-10.3
		c3.7,0,6.7,1,9,3c2.3,2,3.4,4.6,3.4,7.9c0,5-2.4,7.6-7.3,7.6l-1.3-2.9c0.7,0,1.2,0.1,1.6,0.1c3.4,0,5.1-1.4,5.1-4.1
		c0-2.9-3.6-4.4-10.9-4.4c-6.3,0-9.4,1.6-9.4,4.9c0,1.3,0.5,2.5,1.6,3.4s2.4,1.3,4,1.3C9.2,283.1,10,283,11,282.9z"/>
	<path class="st3" d="M25.2,294.3H1.6V288h23.3C24.9,289.7,25,291.8,25.2,294.3z"/>
	<path class="st3" d="M1.6,297.7h17.2c0,1.9,0.2,4,0.5,6.2H1.6V297.7z M25.5,300.9c0,1.9-0.8,2.9-2.3,2.9s-2.3-1-2.3-2.9
		s0.8-2.9,2.3-2.9S25.5,299,25.5,300.9z"/>
	<path class="st3" d="M1.6,323.7v-6.2h12.6c1.3,0,1.9-0.4,1.9-1.1c0-0.7-0.5-1.4-1.5-1.9c-1-0.5-2.2-0.8-3.6-0.8H1.6v-6.2h17.2
		c0,2.1,0.1,4.2,0.4,6.2H16c2.1,1.5,3.2,3.4,3.2,5.7c0,2.9-1.5,4.3-4.4,4.3H1.6z"/>
	<path class="st3" d="M18.7,336.5h-1.9v-2.8H4.7c-0.8,0-1.1,0.2-1.1,0.7c0,0.4,0.3,0.6,0.8,0.6l-0.2,1.8c-1.8-0.5-2.7-2-2.7-4.7
		c0-3.1,1.3-4.7,4-4.7h11.4v-2.1h1.9v2.1h3c0.6,2.1,1.4,4.2,2.6,6.2h-5.6V336.5z"/>
	<path class="st3" d="M24.9,355.1h-2.3v-5.7H1.6v-7.2h20.9v-5.7h2.3V355.1z"/>
	<path class="st3" d="M19.2,364.3c0,5.7-3,8.5-9,8.5s-9-2.8-9-8.5c0-5.7,3-8.5,9-8.5S19.2,358.6,19.2,364.3z M17.7,364.3
		c0-1.4-2.5-2.1-7.5-2.1s-7.5,0.7-7.5,2.1c0,1.4,2.5,2.1,7.5,2.1S17.7,365.7,17.7,364.3z"/>
	<path class="st3" d="M19.2,383.2c0,5.7-3,8.5-9,8.5s-9-2.8-9-8.5c0-5.7,3-8.5,9-8.5S19.2,377.5,19.2,383.2z M17.7,383.2
		c0-1.4-2.5-2.1-7.5-2.1s-7.5,0.7-7.5,2.1c0,1.4,2.5,2.1,7.5,2.1S17.7,384.6,17.7,383.2z"/>
	<path class="st3" d="M25.2,400.5H1.6v-6.2h23.3C24.9,396,25,398.1,25.2,400.5z"/>
	<path class="st3" d="M14.4,417.4l-0.5-3c2.6,0,3.9-1.2,3.9-3.6c0-1.5-0.6-2.2-1.8-2.2c-0.9,0-1.8,1.3-2.9,3.8
		c-1.6,3.9-3.6,5.8-6,5.8c-3.9,0-5.8-2.5-5.8-7.4c0-5.2,1.9-7.8,5.8-7.8l0.6,3.2c-0.4,0-0.7-0.1-1.1-0.1c-1,0-1.9,0.4-2.6,1.3
		c-0.7,0.8-1.1,1.8-1.1,3c0,1.5,0.6,2.3,1.9,2.3c0.9,0,1.8-1.2,2.8-3.6c1.6-3.6,3.6-5.5,6-5.5c1.6,0,3,0.7,4,2.1
		c1,1.4,1.6,3.2,1.6,5.4C19.2,414.8,17.6,417,14.4,417.4z"/>
</g>
</svg>
