<?xml version="1.0" encoding="utf-8"?>
<!-- Generator: Adobe Illustrator 26.0.3, SVG Export Plug-In . SVG Version: 6.00 Build 0)  -->
<svg version="1.1"
	 id="svg4" xmlns:inkscape="http://www.inkscape.org/namespaces/inkscape" xmlns:sodipodi="http://sodipodi.sourceforge.net/DTD/sodipodi-0.dtd" xmlns:svg="http://www.w3.org/2000/svg"
	 xmlns="http://www.w3.org/2000/svg" xmlns:xlink="http://www.w3.org/1999/xlink" x="0px" y="0px" viewBox="0 0 20.1 208.6"
	 style="enable-background:new 0 0 20.1 208.6;" xml:space="preserve">
<style type="text/css">
	.st0{fill:#CCCCCC;fill-opacity:0.9;}
</style>
<sodipodi:namedview  bordercolor="#666666" borderopacity="1.0" fit-margin-bottom="0" fit-margin-left="0" fit-margin-right="0" fit-margin-top="0" id="namedview6" inkscape:current-layer="svg4" inkscape:cx="-27.037915" inkscape:cy="31.267773" inkscape:pagecheckerboard="0" inkscape:pageopacity="0.0" inkscape:pageshadow="2" inkscape:window-height="1009" inkscape:window-maximized="1" inkscape:window-width="1920" inkscape:window-x="0" inkscape:window-y="0" inkscape:zoom="6.0285714" pagecolor="#cccccc" showgrid="false">
	</sodipodi:namedview>
<path id="path2" class="st0" d="M0.4,25.1l19.3,8.6v2L0.4,44.2V42l16.8-7.4L0.4,27.1V25.1z M14.6,10.5v10.8l5.2,2.3v2.1L0.4,16.8v-2
	L19.7,6v2.2L14.6,10.5z M12.9,11.2L2.5,15.8l10.4,4.6V11.2z M0.4,0h19.3v2H2.2v4.6H0.4L0.4,0z M12,155.2l0.6-2.2
	c0.5,0,0.9-0.1,1.2-0.1c1.7,0,3.1,0.6,4.2,1.9c1,1.3,1.6,3,1.6,5.1c0,5.3-3,8-9,8c-2.8,0-5.2-0.8-6.9-2.3s-2.7-3.6-2.7-6.1
	c0-3.9,1.9-5.8,5.6-5.8l1,2.2c-0.5,0-0.9,0-1.2,0c-2.7,0-4,1.1-4,3.2c0,2.3,2.8,3.4,8.5,3.4c4.8,0,7.3-1.3,7.3-3.8
	c0-1-0.4-1.9-1.2-2.6c-0.8-0.7-1.9-1-3.1-1C13.3,155,12.7,155.1,12,155.2z M0.9,146.4h18.3v4.8h-18C1.2,149.9,1.1,148.3,0.9,146.4z
	 M19.2,143.7H5.9c0-1.5-0.1-3.1-0.4-4.8h13.6V143.7z M0.7,141.3c0-1.5,0.6-2.2,1.7-2.2s1.7,0.7,1.7,2.2c0,1.5-0.6,2.2-1.7,2.2
	S0.7,142.8,0.7,141.3z M19.2,123.6v4.8H9.4c-1,0-1.5,0.3-1.5,0.8c0,0.6,0.4,1.1,1.2,1.5s1.7,0.6,2.8,0.6h7.3v4.8H5.9
	c0-1.7-0.1-3.3-0.3-4.8H8c-1.7-1.2-2.5-2.7-2.5-4.4c0-2.2,1.1-3.3,3.4-3.3H19.2z M5.9,113.7h1.5v2.1h9.4c0.6,0,0.9-0.2,0.9-0.6
	c0-0.3-0.2-0.4-0.6-0.5l0.1-1.4c1.4,0.4,2.1,1.6,2.1,3.6c0,2.4-1,3.6-3.1,3.6H7.4v1.6H5.9v-1.6H3.6c-0.5-1.7-1.1-3.3-2-4.8h4.3
	V113.7z M1.2,99.4H3v4.4h16.2v5.5H3v4.4H1.2V99.4z M5.6,92.2c0-4.4,2.3-6.6,7-6.6s7,2.2,7,6.6c0,4.4-2.3,6.6-7,6.6
	S5.6,96.6,5.6,92.2z M6.7,92.2c0,1.1,1.9,1.6,5.8,1.6s5.8-0.5,5.8-1.6c0-1.1-1.9-1.6-5.8-1.6S6.7,91.2,6.7,92.2z M5.6,77.6
	c0-4.4,2.3-6.6,7-6.6s7,2.2,7,6.6c0,4.4-2.3,6.6-7,6.6S5.6,82,5.6,77.6z M6.7,77.6c0,1.1,1.9,1.6,5.8,1.6s5.8-0.5,5.8-1.6
	c0-1.1-1.9-1.6-5.8-1.6S6.7,76.6,6.7,77.6z M0.9,64.2h18.3V69h-18C1.2,67.7,1.1,66.1,0.9,64.2z M9.3,51.2l0.4,2.3c-2,0-3,0.9-3,2.8
	c0,1.1,0.5,1.7,1.4,1.7c0.7,0,1.4-1,2.2-2.9c1.2-3,2.8-4.5,4.7-4.5c3,0,4.5,1.9,4.5,5.7c0,4-1.5,6-4.5,6l-0.5-2.5
	c0.3,0,0.6,0.1,0.8,0.1c0.8,0,1.4-0.3,2-1c0.6-0.6,0.9-1.4,0.9-2.3c0-1.2-0.5-1.7-1.5-1.7c-0.7,0-1.4,0.9-2.2,2.8
	c-1.2,2.8-2.8,4.2-4.7,4.2c-1.3,0-2.3-0.5-3.1-1.6c-0.8-1.1-1.2-2.5-1.2-4.2C5.6,53.2,6.8,51.5,9.3,51.2z"/>
</svg>
