<?xml version="1.0" encoding="utf-8"?>
<!-- Generator: Adobe Illustrator 26.0.3, SVG Export Plug-In . SVG Version: 6.00 Build 0)  -->
<svg version="1.1"
	 id="svg4" xmlns:inkscape="http://www.inkscape.org/namespaces/inkscape" xmlns:sodipodi="http://sodipodi.sourceforge.net/DTD/sodipodi-0.dtd" xmlns:svg="http://www.w3.org/2000/svg"
	 xmlns="http://www.w3.org/2000/svg" xmlns:xlink="http://www.w3.org/1999/xlink" x="0px" y="0px" viewBox="0 0 182 13"
	 style="enable-background:new 0 0 182 13;" xml:space="preserve">
<style type="text/css">
	.st0{fill:#620084;fill-opacity:0.9;}
</style>
<sodipodi:namedview  bordercolor="#666666" borderopacity="1.0" id="namedview6" inkscape:current-layer="svg4" inkscape:cx="41.913191" inkscape:cy="13.971064" inkscape:pagecheckerboard="0" inkscape:pageopacity="0.0" inkscape:pageshadow="2" inkscape:window-height="1007" inkscape:window-maximized="1" inkscape:window-width="1920" inkscape:window-x="0" inkscape:window-y="0" inkscape:zoom="3.8651316" pagecolor="#ffffff" showgrid="false">
	</sodipodi:namedview>
<path id="path2" class="st0" d="M134.3,12l-2.6-3.6c-0.3,0-0.6,0-0.9,0h-3V12h-1.2V0.8h4.2c1.4,0,2.6,0.3,3.4,1
	c0.8,0.7,1.2,1.6,1.2,2.8c0,0.9-0.2,1.6-0.7,2.2c-0.4,0.6-1.1,1-1.9,1.3l2.7,3.8H134.3z M130.8,7.4c1.1,0,2-0.2,2.5-0.7
	c0.6-0.5,0.9-1.2,0.9-2.1c0-0.9-0.3-1.6-0.9-2.1c-0.6-0.5-1.4-0.7-2.5-0.7h-3v5.6H130.8z M145.4,8.1h-7c0.1,0.9,0.4,1.6,1,2.1
	c0.6,0.5,1.4,0.8,2.3,0.8c0.5,0,1-0.1,1.4-0.3c0.4-0.2,0.8-0.5,1.1-0.8l0.6,0.7c-0.4,0.4-0.8,0.8-1.4,1c-0.6,0.2-1.2,0.4-1.8,0.4
	c-0.9,0-1.6-0.2-2.3-0.5c-0.7-0.4-1.2-0.9-1.6-1.5c-0.4-0.7-0.6-1.4-0.6-2.2s0.2-1.6,0.5-2.2c0.4-0.7,0.9-1.2,1.5-1.5
	c0.6-0.4,1.3-0.5,2.1-0.5s1.5,0.2,2.1,0.5c0.6,0.4,1.1,0.9,1.5,1.5c0.4,0.6,0.5,1.4,0.5,2.2L145.4,8.1z M141.4,4.5
	c-0.8,0-1.5,0.3-2,0.8c-0.5,0.5-0.9,1.2-0.9,2h6c-0.1-0.8-0.4-1.5-0.9-2C142.9,4.8,142.2,4.5,141.4,4.5z M154.8,3.6l-3.7,8.4h-1.2
	l-3.7-8.4h1.2l3.2,7.2l3.2-7.2L154.8,3.6z M163.7,8.1h-7c0.1,0.9,0.4,1.6,1,2.1c0.6,0.5,1.4,0.8,2.3,0.8c0.5,0,1-0.1,1.4-0.3
	c0.4-0.2,0.8-0.5,1.1-0.8l0.6,0.7c-0.4,0.4-0.8,0.8-1.4,1c-0.6,0.2-1.2,0.4-1.8,0.4c-0.9,0-1.6-0.2-2.3-0.5
	c-0.7-0.4-1.2-0.9-1.6-1.5c-0.4-0.7-0.6-1.4-0.6-2.2s0.2-1.6,0.5-2.2c0.4-0.7,0.9-1.2,1.5-1.5c0.6-0.4,1.3-0.5,2.1-0.5
	c0.8,0,1.5,0.2,2.1,0.5c0.6,0.4,1.1,0.9,1.5,1.5c0.4,0.6,0.5,1.4,0.5,2.2L163.7,8.1z M159.6,4.5c-0.8,0-1.5,0.3-2,0.8
	c-0.5,0.5-0.9,1.2-0.9,2h6c-0.1-0.8-0.4-1.5-0.9-2C161.1,4.8,160.4,4.5,159.6,4.5z M167.3,5.2c0.3-0.6,0.7-1,1.2-1.3
	c0.5-0.3,1.2-0.4,2-0.4v1.1l-0.3,0c-0.9,0-1.6,0.3-2.1,0.8c-0.5,0.5-0.8,1.3-0.8,2.3V12h-1.1V3.6h1.1V5.2z M177,3.5
	c0.8,0,1.5,0.2,2.1,0.5c0.6,0.4,1.1,0.9,1.5,1.5c0.4,0.7,0.5,1.4,0.5,2.2s-0.2,1.6-0.5,2.2c-0.4,0.7-0.9,1.2-1.5,1.5
	c-0.6,0.4-1.4,0.5-2.1,0.5c-0.7,0-1.3-0.1-1.9-0.4c-0.6-0.3-1-0.7-1.3-1.3V12h-1.1V0.1h1.1v5.1c0.4-0.5,0.8-1,1.3-1.2
	C175.7,3.7,176.3,3.5,177,3.5z M176.9,11.1c0.6,0,1.1-0.1,1.6-0.4c0.5-0.3,0.9-0.7,1.1-1.2c0.3-0.5,0.4-1.1,0.4-1.7
	s-0.1-1.2-0.4-1.7c-0.3-0.5-0.6-0.9-1.1-1.2c-0.5-0.3-1-0.4-1.6-0.4c-0.6,0-1.1,0.1-1.6,0.4c-0.5,0.3-0.8,0.7-1.1,1.2
	c-0.3,0.5-0.4,1.1-0.4,1.7s0.1,1.2,0.4,1.7c0.3,0.5,0.6,0.9,1.1,1.2C175.7,10.9,176.3,11.1,176.9,11.1z M53.1,7.7l1.4,0.4
	c0,0.3,0,0.6,0,0.8c0,1.1-0.4,2-1.2,2.7c-0.8,0.7-1.9,1-3.3,1c-3.4,0-5.2-1.9-5.2-5.8c0-1.8,0.5-3.3,1.5-4.5s2.3-1.7,3.9-1.7
	c2.5,0,3.8,1.2,3.8,3.6l-1.4,0.7c0-0.3,0-0.6,0-0.8c0-1.7-0.7-2.6-2.1-2.6c-1.5,0-2.2,1.8-2.2,5.5c0,3.1,0.8,4.7,2.4,4.7
	c0.7,0,1.2-0.3,1.7-0.8c0.4-0.5,0.7-1.2,0.7-2C53.2,8.6,53.2,8.2,53.1,7.7z M58.8,0.6v11.8h-3.1V0.7C56.5,0.7,57.6,0.7,58.8,0.6z
	 M60.5,12.4V3.8c1,0,2-0.1,3.1-0.2v8.8H60.5z M62.1,0.4c1,0,1.4,0.4,1.4,1.1s-0.5,1.1-1.4,1.1s-1.4-0.4-1.4-1.1S61.1,0.4,62.1,0.4z
	 M73.5,12.4h-3.1V6.1c0-0.6-0.2-1-0.5-1c-0.4,0-0.7,0.3-0.9,0.8S68.5,7,68.5,7.7v4.7h-3.1V3.8c1.1,0,2.1-0.1,3.1-0.2v1.6
	c0.8-1.1,1.7-1.6,2.8-1.6c1.4,0,2.2,0.7,2.2,2.2V12.4z M79.9,3.8v1h-1.4v6.1c0,0.4,0.1,0.6,0.4,0.6c0.2,0,0.3-0.1,0.3-0.4l0.9,0.1
	c-0.2,0.9-1,1.3-2.3,1.3c-1.6,0-2.3-0.7-2.3-2V4.8h-1v-1h1V2.3C76.5,2,77.5,1.6,78.5,1v2.8H79.9z M89.2,0.7v1.2h-2.9v10.5h-3.6V1.9
	h-2.9V0.7H89.2z M93.8,3.5c2.8,0,4.3,1.5,4.3,4.5s-1.4,4.5-4.3,4.5c-2.8,0-4.3-1.5-4.3-4.5S91,3.5,93.8,3.5z M93.8,4.3
	c-0.7,0-1,1.2-1,3.7s0.3,3.7,1,3.7c0.7,0,1-1.2,1-3.7S94.5,4.3,93.8,4.3z M103.3,3.5c2.8,0,4.3,1.5,4.3,4.5s-1.4,4.5-4.3,4.5
	C100.4,12.5,99,11,99,8S100.4,3.5,103.3,3.5z M103.2,4.3c-0.7,0-1,1.2-1,3.7s0.3,3.7,1,3.7c0.7,0,1-1.2,1-3.7S103.9,4.3,103.2,4.3z
	 M111.9,0.6v11.8h-3.1V0.7C109.7,0.7,110.7,0.7,111.9,0.6z M120.3,6l-1.5,0.3c0-1.3-0.6-1.9-1.8-1.9c-0.7,0-1.1,0.3-1.1,0.9
	c0,0.4,0.6,0.9,1.9,1.4c1.9,0.8,2.9,1.8,2.9,3c0,1.9-1.2,2.9-3.7,2.9c-2.6,0-3.9-1-3.9-2.9l1.6-0.3c0,0.2,0,0.4,0,0.5
	c0,0.5,0.2,0.9,0.6,1.3c0.4,0.4,0.9,0.6,1.5,0.6c0.8,0,1.1-0.3,1.1-1c0-0.4-0.6-0.9-1.8-1.4c-1.8-0.8-2.7-1.8-2.7-3
	c0-0.8,0.3-1.5,1-2s1.6-0.8,2.7-0.8C119.1,3.6,120.1,4.4,120.3,6z"/>
</svg>
