<?xml version="1.0" encoding="utf-8"?>
<!-- Generator: Adobe Illustrator 26.0.3, SVG Export Plug-In . SVG Version: 6.00 Build 0)  -->
<svg version="1.1" id="Layer_1" xmlns="http://www.w3.org/2000/svg" xmlns:xlink="http://www.w3.org/1999/xlink" x="0px" y="0px"
	 viewBox="0 0 117 22" style="enable-background:new 0 0 117 22;" xml:space="preserve">
<style type="text/css">
	.st0{fill:#1E2291;}
</style>
<path class="st0" d="M15.1,21l-4-6l-3.9,6H0.9l7-9.8L1.2,1.7h6.2l3.9,5.6l3.8-5.6H21L14.3,11l7.2,10H15.1z M31.6,12.7h7.2v1.7h-7.2
	V12.7z M53.5,3.4V11h10v1.8h-10V21h-2V1.7h13.3v1.8H53.5z M73.2,6.4c1.9,0,3.4,0.5,4.4,1.4c1,0.9,1.5,2.3,1.5,4.2v9h-1.9v-2.3
	c-0.4,0.8-1.1,1.3-2,1.8c-0.8,0.4-1.9,0.6-3,0.6c-1.6,0-2.9-0.4-3.9-1.2c-1-0.8-1.4-1.8-1.4-3.1c0-1.2,0.4-2.2,1.3-3
	c0.9-0.8,2.3-1.1,4.3-1.1h4.6v-0.9c0-1.3-0.3-2.2-1-2.8c-0.7-0.7-1.7-1-3.1-1c-0.9,0-1.8,0.2-2.7,0.5c-0.8,0.3-1.6,0.7-2.2,1.2
	l-0.9-1.5C68.1,7.7,69,7.2,70,6.9C71,6.5,72.1,6.4,73.2,6.4z M72.6,19.6c1.1,0,2.1-0.2,2.8-0.7c0.8-0.5,1.4-1.3,1.8-2.2v-2.4h-4.6
	c-2.5,0-3.7,0.9-3.7,2.6c0,0.8,0.3,1.5,1,2C70.5,19.4,71.4,19.6,72.6,19.6z M98,0.5V21h-1.9v-2.9c-0.6,1-1.4,1.7-2.3,2.2
	c-1,0.5-2,0.8-3.3,0.8c-1.4,0-2.6-0.3-3.7-0.9c-1.1-0.6-2-1.5-2.6-2.6c-0.6-1.1-0.9-2.4-0.9-3.8s0.3-2.7,0.9-3.8
	c0.6-1.1,1.5-2,2.6-2.6c1.1-0.6,2.3-0.9,3.7-0.9c1.2,0,2.2,0.2,3.2,0.7c1,0.5,1.7,1.2,2.3,2.1V0.5H98z M90.7,19.4
	c1,0,1.9-0.2,2.7-0.7c0.8-0.5,1.5-1.2,1.9-2c0.5-0.9,0.7-1.9,0.7-3c0-1.1-0.2-2.1-0.7-3c-0.5-0.9-1.1-1.5-1.9-2
	c-0.8-0.5-1.7-0.7-2.7-0.7c-1,0-2,0.2-2.8,0.7c-0.8,0.5-1.5,1.1-1.9,2c-0.5,0.9-0.7,1.9-0.7,3c0,1.1,0.2,2.1,0.7,3
	c0.5,0.9,1.1,1.5,1.9,2C88.8,19.2,89.7,19.4,90.7,19.4z M116.4,14.3h-12.2c0.1,1.5,0.7,2.7,1.7,3.7c1,0.9,2.4,1.4,4,1.4
	c0.9,0,1.7-0.2,2.5-0.5c0.8-0.3,1.4-0.8,2-1.4l1.1,1.3c-0.6,0.8-1.5,1.4-2.4,1.8c-1,0.4-2,0.6-3.2,0.6c-1.5,0-2.8-0.3-4-0.9
	c-1.1-0.6-2-1.5-2.7-2.7c-0.6-1.1-1-2.4-1-3.8c0-1.4,0.3-2.7,0.9-3.8c0.6-1.1,1.5-2,2.5-2.6c1.1-0.6,2.3-0.9,3.6-0.9
	c1.3,0,2.5,0.3,3.6,0.9s1.9,1.5,2.5,2.6c0.6,1.1,0.9,2.4,0.9,3.8L116.4,14.3z M109.4,8c-1.4,0-2.6,0.5-3.5,1.4
	c-0.9,0.9-1.5,2-1.6,3.5h10.3c-0.1-1.4-0.7-2.6-1.6-3.5C112,8.5,110.8,8,109.4,8z"/>
</svg>
