<?xml version="1.0" encoding="utf-8"?>
<!-- Generator: Adobe Illustrator 26.0.3, SVG Export Plug-In . SVG Version: 6.00 Build 0)  -->
<svg version="1.1" id="Layer_1" xmlns="http://www.w3.org/2000/svg" xmlns:xlink="http://www.w3.org/1999/xlink" x="0px" y="0px"
	 viewBox="0 0 32 32" style="enable-background:new 0 0 32 32;" xml:space="preserve">
<style type="text/css">
	.st0{fill:url(#SVGID_1_);}
</style>
<linearGradient id="SVGID_1_" gradientUnits="userSpaceOnUse" x1="15.9929" y1="32.2395" x2="16.0069" y2="0.2255">
	<stop  offset="0" style="stop-color:#612A7F"/>
	<stop  offset="1" style="stop-color:#2E3189"/>
</linearGradient>
<path class="st0" d="M0,0v32h32V0H0z M15.23,20.65c-0.26,0.62-0.68,1.24-1.25,1.84c-0.57,0.6-1.29,1.09-2.17,1.47
	c-0.88,0.38-1.91,0.56-3.08,0.56c-0.89,0-1.7-0.08-2.43-0.25s-1.39-0.43-1.98-0.79s-1.14-0.83-1.64-1.41
	c-0.44-0.53-0.82-1.12-1.14-1.78c-0.31-0.66-0.55-1.36-0.71-2.1c-0.16-0.74-0.24-1.53-0.24-2.37c0-1.36,0.2-2.57,0.59-3.65
	c0.4-1.07,0.96-1.99,1.7-2.76c0.74-0.76,1.6-1.34,2.59-1.74s2.04-0.6,3.16-0.6c1.36,0,2.58,0.27,3.65,0.82
	c1.07,0.54,1.88,1.22,2.45,2.02s0.85,1.56,0.85,2.27c0,0.39-0.14,0.74-0.41,1.04s-0.61,0.45-1,0.45c-0.44,0-0.77-0.1-0.98-0.31
	c-0.22-0.21-0.46-0.56-0.73-1.07c-0.44-0.84-0.97-1.46-1.57-1.88c-0.6-0.41-1.34-0.62-2.23-0.62c-1.4,0-2.52,0.53-3.35,1.6
	c-0.83,1.07-1.25,2.58-1.25,4.54c0,1.31,0.18,2.4,0.55,3.27c0.37,0.87,0.89,1.52,1.56,1.95c0.67,0.43,1.46,0.64,2.37,0.64
	c0.98,0,1.81-0.24,2.49-0.73c0.68-0.49,1.19-1.2,1.54-2.15c0.15-0.44,0.33-0.81,0.54-1.09s0.56-0.42,1.04-0.42
	c0.41,0,0.76,0.14,1.05,0.43c0.29,0.28,0.44,0.64,0.44,1.06C15.63,19.45,15.5,20.03,15.23,20.65z M30.97,9.81
	c-0.29,0.26-0.73,0.39-1.31,0.39h-3.73v12.25c0,0.71-0.16,1.23-0.47,1.57c-0.31,0.34-0.72,0.51-1.22,0.51
	c-0.51,0-0.92-0.17-1.24-0.52s-0.48-0.87-0.48-1.56V10.19H18.8c-0.58,0-1.02-0.13-1.3-0.39c-0.28-0.26-0.43-0.6-0.43-1.02
	c0-0.44,0.15-0.78,0.44-1.04s0.72-0.38,1.28-0.38h10.86c0.59,0,1.03,0.13,1.32,0.39s0.43,0.6,0.43,1.02
	C31.4,9.21,31.26,9.55,30.97,9.81z"/>
</svg>
