<?xml version="1.0" encoding="utf-8"?>
<!-- Generator: Adobe Illustrator 26.0.3, SVG Export Plug-In . SVG Version: 6.00 Build 0)  -->
<svg version="1.1" id="Layer_1" xmlns="http://www.w3.org/2000/svg" xmlns:xlink="http://www.w3.org/1999/xlink" x="0px" y="0px"
	 viewBox="0 0 24 24" style="enable-background:new 0 0 24 24;" xml:space="preserve">
<style type="text/css">
	.st0{fill:url(#SVGID_1_);}
</style>
<linearGradient id="SVGID_1_" gradientUnits="userSpaceOnUse" x1="11.992" y1="24.1796" x2="12.0025" y2="0.1692">
	<stop  offset="0" style="stop-color:#612A7F"/>
	<stop  offset="1" style="stop-color:#2E3189"/>
</linearGradient>
<path class="st0" d="M0,0v24h23.99V0H0z M11.42,15.49c-0.2,0.47-0.51,0.93-0.94,1.38c-0.43,0.45-0.97,0.82-1.63,1.1
	c-0.66,0.28-1.43,0.42-2.31,0.42c-0.67,0-1.27-0.06-1.82-0.19s-1.04-0.32-1.49-0.59s-0.86-0.62-1.23-1.06
	c-0.33-0.4-0.62-0.84-0.85-1.33c-0.24-0.49-0.41-1.02-0.53-1.57c-0.12-0.56-0.18-1.15-0.18-1.78c0-1.02,0.15-1.93,0.44-2.73
	c0.3-0.81,0.72-1.49,1.27-2.07C2.72,6.5,3.36,6.06,4.1,5.76s1.53-0.45,2.37-0.45c1.02,0,1.93,0.2,2.73,0.61
	c0.8,0.41,1.41,0.91,1.84,1.51c0.43,0.6,0.64,1.17,0.64,1.7c0,0.29-0.1,0.55-0.31,0.78s-0.46,0.34-0.75,0.34
	c-0.33,0-0.57-0.08-0.74-0.23C9.72,9.87,9.54,9.6,9.34,9.22C9.01,8.6,8.61,8.13,8.16,7.82C7.71,7.51,7.16,7.35,6.49,7.35
	c-1.05,0-1.89,0.4-2.51,1.2c-0.62,0.8-0.94,1.94-0.94,3.41c0,0.98,0.14,1.8,0.41,2.45c0.28,0.65,0.67,1.14,1.17,1.46
	c0.51,0.32,1.1,0.48,1.78,0.48c0.74,0,1.36-0.18,1.87-0.55c0.51-0.37,0.89-0.9,1.15-1.61c0.11-0.33,0.24-0.6,0.41-0.81
	s0.42-0.31,0.78-0.31c0.3,0,0.57,0.11,0.78,0.32c0.22,0.21,0.33,0.48,0.33,0.79C11.72,14.59,11.62,15.02,11.42,15.49z M23.22,7.36
	C23,7.55,22.67,7.64,22.24,7.64h-2.79v9.19c0,0.53-0.12,0.92-0.35,1.18c-0.24,0.26-0.54,0.38-0.91,0.38c-0.38,0-0.69-0.13-0.93-0.39
	c-0.24-0.26-0.36-0.65-0.36-1.17V7.64h-2.79c-0.44,0-0.76-0.1-0.98-0.29c-0.21-0.19-0.32-0.45-0.32-0.76c0-0.33,0.11-0.59,0.33-0.78
	c0.22-0.19,0.54-0.28,0.96-0.28h8.14c0.44,0,0.77,0.1,0.99,0.29s0.32,0.45,0.32,0.77C23.55,6.91,23.44,7.16,23.22,7.36z"/>
</svg>
