<?xml version="1.0" encoding="utf-8"?>
<!-- Generator: Adobe Illustrator 26.0.3, SVG Export Plug-In . SVG Version: 6.00 Build 0)  -->
<svg version="1.1" id="Layer_1" xmlns="http://www.w3.org/2000/svg" xmlns:xlink="http://www.w3.org/1999/xlink" x="0px" y="0px"
	 viewBox="0 0 48 48" style="enable-background:new 0 0 48 48;" xml:space="preserve">
<style type="text/css">
	.st0{fill:url(#SVGID_1_);}
</style>
<linearGradient id="SVGID_1_" gradientUnits="userSpaceOnUse" x1="23.9894" y1="48.3592" x2="24.0103" y2="0.3383">
	<stop  offset="0" style="stop-color:#612A7F"/>
	<stop  offset="1" style="stop-color:#2E3189"/>
</linearGradient>
<path class="st0" d="M0,0v48h48V0H0z M22.85,30.98c-0.4,0.94-1.02,1.86-1.87,2.76c-0.85,0.9-1.94,1.64-3.26,2.2
	c-1.32,0.56-2.86,0.85-4.62,0.85c-1.33,0-2.55-0.13-3.64-0.38s-2.09-0.65-2.98-1.18s-1.71-1.24-2.46-2.11
	c-0.67-0.79-1.24-1.68-1.71-2.67c-0.47-0.98-0.83-2.03-1.06-3.15c-0.24-1.12-0.35-2.3-0.35-3.55c0-2.04,0.3-3.86,0.89-5.47
	c0.59-1.61,1.44-2.99,2.55-4.13c1.1-1.14,2.4-2.02,3.88-2.61s3.07-0.9,4.75-0.9c2.05,0,3.87,0.41,5.47,1.22
	c1.6,0.82,2.82,1.83,3.68,3.03s1.28,2.34,1.28,3.41c0,0.59-0.21,1.1-0.62,1.55s-0.91,0.67-1.5,0.67c-0.66,0-1.15-0.16-1.48-0.47
	c-0.33-0.31-0.69-0.85-1.1-1.6c-0.67-1.25-1.45-2.19-2.36-2.81c-0.9-0.62-2.02-0.93-3.34-0.93c-2.11,0-3.78,0.8-5.03,2.4
	c-1.25,1.6-1.87,3.87-1.87,6.82c0,1.97,0.28,3.6,0.83,4.91c0.55,1.31,1.33,2.28,2.35,2.92c1.01,0.64,2.2,0.97,3.55,0.97
	c1.47,0,2.72-0.37,3.74-1.1c1.02-0.73,1.79-1.8,2.3-3.22c0.22-0.67,0.49-1.21,0.81-1.63s0.84-0.63,1.55-0.63
	c0.61,0,1.13,0.21,1.57,0.64c0.44,0.43,0.66,0.95,0.66,1.59C23.45,29.17,23.25,30.04,22.85,30.98z M46.45,14.71
	c-0.44,0.39-1.09,0.58-1.97,0.58h-5.59v18.38c0,1.06-0.24,1.84-0.71,2.36c-0.47,0.51-1.08,0.77-1.83,0.77
	c-0.76,0-1.38-0.26-1.85-0.78s-0.72-1.3-0.72-2.35V15.29h-5.59c-0.87,0-1.53-0.19-1.95-0.58c-0.43-0.39-0.64-0.89-0.64-1.53
	c0-0.66,0.22-1.17,0.66-1.55s1.09-0.57,1.93-0.57h16.29c0.89,0,1.54,0.2,1.98,0.59s0.65,0.9,0.65,1.54
	C47.11,13.82,46.89,14.33,46.45,14.71z"/>
</svg>
