<?xml version="1.0" encoding="utf-8"?>
<!-- Generator: Adobe Illustrator 26.0.3, SVG Export Plug-In . SVG Version: 6.00 Build 0)  -->
<svg version="1.1" id="Layer_1" xmlns="http://www.w3.org/2000/svg" xmlns:xlink="http://www.w3.org/1999/xlink" x="0px" y="0px"
	 viewBox="0 0 16 16" style="enable-background:new 0 0 16 16;" xml:space="preserve">
<style type="text/css">
	.st0{fill:#2E3189;}
	.st1{fill:#612A7F;}
	.st2{fill:#FFFFFF;}
	.st3{fill:url(#SVGID_1_);}
</style>
<rect x="-3.7" y="3.29" class="st0" width="0.41" height="0.87"/>
<rect x="-3.7" y="5.64" class="st1" width="0.41" height="0.79"/>
<rect x="-3.7" y="8" class="st2" width="0.6" height="0.6"/>
<linearGradient id="SVGID_1_" gradientUnits="userSpaceOnUse" x1="7.9965" y1="16.1197" x2="8.0034" y2="0.1128">
	<stop  offset="0" style="stop-color:#612A7F"/>
	<stop  offset="1" style="stop-color:#2E3189"/>
</linearGradient>
<path class="st3" d="M0,0v16h16V0H0z M7.62,10.33c-0.13,0.31-0.34,0.62-0.62,0.92c-0.28,0.3-0.65,0.55-1.09,0.73
	c-0.44,0.19-0.95,0.28-1.54,0.28c-0.44,0-0.85-0.04-1.21-0.13s-0.7-0.22-0.99-0.39s-0.57-0.41-0.82-0.7
	c-0.22-0.26-0.41-0.56-0.57-0.89C0.61,9.82,0.49,9.47,0.42,9.1C0.34,8.73,0.3,8.33,0.3,7.91c0-0.68,0.1-1.29,0.3-1.82
	c0.2-0.54,0.48-1,0.85-1.38c0.37-0.38,0.8-0.67,1.29-0.87s1.02-0.3,1.58-0.3c0.68,0,1.29,0.14,1.82,0.41
	c0.53,0.27,0.94,0.61,1.23,1.01S7.79,5.74,7.79,6.1c0,0.2-0.07,0.37-0.21,0.52s-0.3,0.22-0.5,0.22c-0.22,0-0.38-0.05-0.49-0.16
	C6.48,6.58,6.36,6.4,6.23,6.15C6.01,5.73,5.74,5.42,5.44,5.21C5.14,5,4.77,4.9,4.33,4.9c-0.7,0-1.26,0.27-1.68,0.8
	C2.24,6.23,2.03,6.99,2.03,7.97c0,0.66,0.09,1.2,0.28,1.64c0.18,0.44,0.44,0.76,0.78,0.97c0.34,0.21,0.73,0.32,1.18,0.32
	c0.49,0,0.91-0.12,1.25-0.37c0.34-0.24,0.6-0.6,0.77-1.07c0.07-0.22,0.16-0.4,0.27-0.54s0.28-0.21,0.52-0.21
	c0.2,0,0.38,0.07,0.52,0.21c0.15,0.14,0.22,0.32,0.22,0.53C7.82,9.72,7.75,10.01,7.62,10.33z M15.48,4.9
	c-0.15,0.13-0.36,0.19-0.66,0.19h-1.86v6.13c0,0.35-0.08,0.61-0.24,0.79c-0.16,0.17-0.36,0.26-0.61,0.26
	c-0.25,0-0.46-0.09-0.62-0.26s-0.24-0.43-0.24-0.78V5.1H9.4c-0.29,0-0.51-0.06-0.65-0.19c-0.14-0.13-0.21-0.3-0.21-0.51
	c0-0.22,0.07-0.39,0.22-0.52S9.12,3.69,9.4,3.69h5.43c0.3,0,0.51,0.07,0.66,0.2s0.22,0.3,0.22,0.51C15.7,4.61,15.63,4.78,15.48,4.9z
	"/>
</svg>
