<?xml version="1.0" encoding="utf-8"?>
<!-- Generator: Adobe Illustrator 26.0.3, SVG Export Plug-In . SVG Version: 6.00 Build 0)  -->
<svg version="1.1"
	 id="svg4" xmlns:inkscape="http://www.inkscape.org/namespaces/inkscape" xmlns:sodipodi="http://sodipodi.sourceforge.net/DTD/sodipodi-0.dtd" xmlns:svg="http://www.w3.org/2000/svg"
	 xmlns="http://www.w3.org/2000/svg" xmlns:xlink="http://www.w3.org/1999/xlink" x="0px" y="0px" viewBox="0 0 184 13"
	 style="enable-background:new 0 0 184 13;" xml:space="preserve">
<style type="text/css">
	.st0{fill:#FFFFFF;fill-opacity:0.9;}
</style>
<sodipodi:namedview  bordercolor="#666666" borderopacity="1.0" id="namedview6" inkscape:current-layer="svg4" inkscape:cx="80.997447" inkscape:cy="8.3880851" inkscape:pagecheckerboard="0" inkscape:pageopacity="0.0" inkscape:pageshadow="2" inkscape:window-height="1007" inkscape:window-maximized="1" inkscape:window-width="1920" inkscape:window-x="0" inkscape:window-y="0" inkscape:zoom="3.8149351" pagecolor="#ffffff" showgrid="false">
	</sodipodi:namedview>
<path id="path2" class="st0" d="M127.5,1.1h1.2v10.2h6.3v1h-7.5L127.5,1.1z M136.9,3.8h1.1v8.4h-1.1V3.8z M137.4,2
	c-0.2,0-0.4-0.1-0.6-0.2c-0.2-0.2-0.2-0.4-0.2-0.6c0-0.2,0.1-0.4,0.2-0.6c0.2-0.2,0.4-0.2,0.6-0.2c0.2,0,0.4,0.1,0.6,0.2
	c0.2,0.1,0.2,0.3,0.2,0.5c0,0.2-0.1,0.4-0.2,0.6S137.7,2,137.4,2z M151.8,3.8c1.1,0,1.9,0.3,2.5,0.9c0.6,0.6,0.9,1.5,0.9,2.7v4.9
	h-1.1V7.5c0-0.9-0.2-1.5-0.6-2c-0.4-0.5-1-0.7-1.8-0.7c-0.9,0-1.6,0.3-2.1,0.8c-0.5,0.5-0.8,1.3-0.8,2.2v4.4h-1.1V7.5
	c0-0.9-0.2-1.5-0.6-2c-0.4-0.5-1-0.7-1.8-0.7c-0.9,0-1.6,0.3-2.1,0.8c-0.5,0.5-0.8,1.3-0.8,2.2v4.4h-1.1V3.8h1.1v1.5
	c0.3-0.5,0.7-0.9,1.2-1.2s1.1-0.4,1.8-0.4c0.7,0,1.3,0.1,1.8,0.4c0.5,0.3,0.9,0.7,1.2,1.3c0.3-0.6,0.8-1,1.3-1.3
	C150.4,3.9,151.1,3.8,151.8,3.8z M158.4,3.8h1.1v8.4h-1.1V3.8z M159,2c-0.2,0-0.4-0.1-0.6-0.2c-0.2-0.2-0.2-0.4-0.2-0.6
	c0-0.2,0.1-0.4,0.2-0.6c0.2-0.2,0.4-0.2,0.6-0.2s0.4,0.1,0.6,0.2c0.2,0.1,0.2,0.3,0.2,0.5c0,0.2-0.1,0.4-0.2,0.6S159.3,2,159,2z
	 M167.3,11.8c-0.2,0.2-0.5,0.3-0.8,0.4c-0.3,0.1-0.6,0.1-1,0.1c-0.8,0-1.4-0.2-1.8-0.6c-0.4-0.4-0.6-1-0.6-1.8V4.8h-1.5v-1h1.5V2
	h1.1v1.8h2.6v1h-2.6v5c0,0.5,0.1,0.9,0.4,1.2c0.3,0.3,0.6,0.4,1.1,0.4c0.2,0,0.5,0,0.7-0.1c0.2-0.1,0.4-0.2,0.6-0.3L167.3,11.8z
	 M176.6,8.4h-7c0.1,0.9,0.4,1.6,1,2.1c0.6,0.5,1.4,0.8,2.3,0.8c0.5,0,1-0.1,1.4-0.3c0.4-0.2,0.8-0.5,1.1-0.8l0.6,0.7
	c-0.4,0.4-0.8,0.8-1.4,1c-0.6,0.2-1.2,0.4-1.8,0.4c-0.9,0-1.6-0.2-2.3-0.5c-0.7-0.4-1.2-0.9-1.6-1.5c-0.4-0.7-0.6-1.4-0.6-2.2
	s0.2-1.6,0.5-2.2c0.4-0.7,0.9-1.2,1.5-1.5c0.6-0.4,1.3-0.5,2.1-0.5s1.5,0.2,2.1,0.5c0.6,0.4,1.1,0.9,1.5,1.5
	c0.4,0.6,0.5,1.4,0.5,2.2L176.6,8.4z M172.5,4.8c-0.8,0-1.5,0.3-2,0.8c-0.5,0.5-0.9,1.2-0.9,2h6c-0.1-0.8-0.4-1.5-0.9-2
	C174,5,173.4,4.8,172.5,4.8z M180.2,5.5c0.3-0.6,0.7-1,1.2-1.3c0.5-0.3,1.2-0.4,2-0.4v1.1l-0.3,0c-0.9,0-1.6,0.3-2.1,0.8
	S180.2,7,180.2,8v4.3h-1.1V3.8h1.1V5.5z M50.8,7.9l1.4,0.4c0,0.3,0,0.6,0,0.8c0,1.1-0.4,2-1.2,2.7c-0.8,0.7-1.9,1-3.3,1
	c-3.4,0-5.2-1.9-5.2-5.8c0-1.8,0.5-3.3,1.5-4.5s2.3-1.7,3.9-1.7c2.5,0,3.8,1.2,3.8,3.6l-1.4,0.7c0-0.3,0-0.6,0-0.8
	c0-1.7-0.7-2.6-2.1-2.6c-1.5,0-2.2,1.8-2.2,5.5c0,3.1,0.8,4.7,2.4,4.7c0.7,0,1.2-0.3,1.7-0.8c0.4-0.5,0.7-1.2,0.7-2
	C50.9,8.8,50.9,8.4,50.8,7.9z M56.5,0.8v11.8h-3.1V1C54.2,1,55.3,0.9,56.5,0.8z M58.2,12.6V4c1,0,2-0.1,3.1-0.2v8.8H58.2z M59.8,0.7
	c1,0,1.4,0.4,1.4,1.1s-0.5,1.1-1.4,1.1s-1.4-0.4-1.4-1.1S58.8,0.7,59.8,0.7z M71.2,12.6h-3.1V6.3c0-0.6-0.2-1-0.5-1
	c-0.4,0-0.7,0.3-0.9,0.8c-0.3,0.5-0.4,1.1-0.4,1.8v4.7h-3.1V4c1.1,0,2.1-0.1,3.1-0.2v1.6C67,4.3,67.9,3.8,69,3.8
	c1.4,0,2.2,0.7,2.2,2.2V12.6z M77.6,4v1h-1.4v6.1c0,0.4,0.1,0.6,0.4,0.6c0.2,0,0.3-0.1,0.3-0.4l0.9,0.1c-0.2,0.9-1,1.3-2.3,1.3
	c-1.6,0-2.3-0.7-2.3-2V5h-1V4h1V2.5c1.1-0.3,2.1-0.7,3.1-1.3V4H77.6z M86.9,1v1.2H84v10.5h-3.6V2.1h-2.9V1H86.9z M91.5,3.8
	c2.8,0,4.3,1.5,4.3,4.5s-1.4,4.5-4.3,4.5c-2.8,0-4.3-1.5-4.3-4.5S88.7,3.8,91.5,3.8z M91.5,4.5c-0.7,0-1,1.2-1,3.7s0.3,3.7,1,3.7
	c0.7,0,1-1.2,1-3.7S92.2,4.5,91.5,4.5z M100.9,3.8c2.8,0,4.3,1.5,4.3,4.5s-1.4,4.5-4.3,4.5c-2.8,0-4.3-1.5-4.3-4.5
	S98.1,3.8,100.9,3.8z M100.9,4.5c-0.7,0-1,1.2-1,3.7s0.3,3.7,1,3.7c0.7,0,1-1.2,1-3.7S101.6,4.5,100.9,4.5z M109.6,0.8v11.8h-3.1V1
	C107.4,1,108.4,0.9,109.6,0.8z M118,6.2l-1.5,0.3c0-1.3-0.6-1.9-1.8-1.9c-0.7,0-1.1,0.3-1.1,0.9c0,0.4,0.6,0.9,1.9,1.4
	c1.9,0.8,2.9,1.8,2.9,3c0,1.9-1.2,2.9-3.7,2.9c-2.6,0-3.9-1-3.9-2.9l1.6-0.3c0,0.2,0,0.4,0,0.5c0,0.5,0.2,0.9,0.6,1.3
	s0.9,0.6,1.5,0.6c0.8,0,1.1-0.3,1.1-1c0-0.4-0.6-0.9-1.8-1.4c-1.8-0.8-2.7-1.8-2.7-3c0-0.8,0.3-1.5,1-2s1.6-0.8,2.7-0.8
	C116.8,3.8,117.8,4.6,118,6.2z"/>
</svg>
