<?xml version="1.0" encoding="utf-8"?>
<!-- Generator: Adobe Illustrator 26.0.3, SVG Export Plug-In . SVG Version: 6.00 Build 0)  -->
<svg version="1.1"
	 id="svg4" xmlns:inkscape="http://www.inkscape.org/namespaces/inkscape" xmlns:sodipodi="http://sodipodi.sourceforge.net/DTD/sodipodi-0.dtd" xmlns:svg="http://www.w3.org/2000/svg"
	 xmlns="http://www.w3.org/2000/svg" xmlns:xlink="http://www.w3.org/1999/xlink" x="0px" y="0px" viewBox="0 0 172 16"
	 style="enable-background:new 0 0 172 16;" xml:space="preserve">
<style type="text/css">
	.st0{fill:#FFFFFF;}
</style>
<sodipodi:namedview  bordercolor="#666666" borderopacity="1.0" id="namedview6" inkscape:current-layer="svg4" inkscape:cx="69.851915" inkscape:cy="14.502128" inkscape:pagecheckerboard="0" inkscape:pageopacity="0.0" inkscape:pageshadow="2" inkscape:window-height="1007" inkscape:window-maximized="1" inkscape:window-width="1920" inkscape:window-x="0" inkscape:window-y="0" inkscape:zoom="4.1373239" pagecolor="#ffffff" showgrid="false">
	</sodipodi:namedview>
<path id="path2" class="st0" d="M70.8,5.4c0-0.5-0.2-0.9-0.5-1.2s-0.8-0.4-1.5-0.4h-1.8v3.3h1.8c0.7,0,1.1-0.1,1.5-0.4
	C70.7,6.4,70.8,6,70.8,5.4z M127.3,1.3h4.6c1.2,0,2.2,0.2,3.1,0.7c0.9,0.5,1.6,1.1,2.1,2c0.5,0.8,0.8,1.8,0.8,2.9s-0.2,2.1-0.8,2.9
	c-0.5,0.8-1.2,1.5-2.1,2c-0.9,0.5-2,0.7-3.1,0.7h-4.6V1.3z M131.8,11.5c1,0,1.8-0.2,2.6-0.6c0.7-0.4,1.3-0.9,1.7-1.6
	c0.4-0.7,0.6-1.5,0.6-2.4s-0.2-1.7-0.6-2.4c-0.4-0.7-1-1.2-1.7-1.6c-0.7-0.4-1.6-0.6-2.6-0.6h-3.3v9.2H131.8z M147.8,8.6h-7
	c0.1,0.9,0.4,1.6,1,2.1c0.6,0.5,1.4,0.8,2.3,0.8c0.5,0,1-0.1,1.4-0.3c0.4-0.2,0.8-0.5,1.1-0.8l0.6,0.7c-0.4,0.4-0.8,0.8-1.4,1
	c-0.6,0.2-1.2,0.4-1.8,0.4c-0.9,0-1.6-0.2-2.3-0.5c-0.7-0.4-1.2-0.9-1.6-1.5c-0.4-0.7-0.6-1.4-0.6-2.2s0.2-1.6,0.5-2.2
	c0.4-0.7,0.9-1.2,1.5-1.5c0.6-0.4,1.3-0.5,2.1-0.5s1.5,0.2,2.1,0.5c0.6,0.4,1.1,0.9,1.5,1.5c0.4,0.6,0.5,1.4,0.5,2.2L147.8,8.6z
	 M143.7,5c-0.8,0-1.5,0.3-2,0.8c-0.5,0.5-0.9,1.2-0.9,2h6c-0.1-0.8-0.4-1.5-0.9-2C145.3,5.2,144.6,5,143.7,5z M150.3,0.6h1.1v11.9
	h-1.1V0.6z M157.7,4c1.1,0,1.9,0.3,2.5,0.8c0.6,0.5,0.9,1.4,0.9,2.4v5.2H160v-1.3c-0.3,0.4-0.6,0.8-1.1,1c-0.5,0.2-1.1,0.4-1.8,0.4
	c-0.9,0-1.7-0.2-2.2-0.7c-0.6-0.4-0.8-1-0.8-1.8c0-0.7,0.3-1.3,0.8-1.7c0.5-0.4,1.4-0.7,2.5-0.7h2.7V7.2c0-0.7-0.2-1.3-0.6-1.6
	c-0.4-0.4-1-0.6-1.8-0.6c-0.5,0-1,0.1-1.5,0.3c-0.5,0.2-0.9,0.4-1.3,0.7l-0.5-0.8c0.4-0.4,0.9-0.6,1.5-0.8C156.4,4.1,157,4,157.7,4z
	 M157.3,11.7c0.6,0,1.2-0.1,1.6-0.4c0.5-0.3,0.8-0.7,1-1.3V8.6h-2.6c-1.4,0-2.2,0.5-2.2,1.5c0,0.5,0.2,0.9,0.6,1.2
	C156.1,11.5,156.6,11.7,157.3,11.7L157.3,11.7z M171.3,4.1l-4.2,9.4c-0.3,0.8-0.7,1.3-1.2,1.7c-0.4,0.3-1,0.5-1.6,0.5
	c-0.4,0-0.8-0.1-1.1-0.2s-0.7-0.3-0.9-0.6l0.5-0.8c0.4,0.4,0.9,0.6,1.5,0.6c0.4,0,0.7-0.1,1-0.3c0.3-0.2,0.5-0.6,0.8-1.1l0.4-0.8
	l-3.8-8.4h1.2l3.2,7.2l3.2-7.2L171.3,4.1z M44.6,8l1.4,0.4c0,0.3,0,0.6,0,0.8c0,1.1-0.4,2-1.2,2.7c-0.8,0.7-1.9,1-3.3,1
	c-3.4,0-5.2-1.9-5.2-5.8c0-1.8,0.5-3.3,1.5-4.5s2.3-1.7,3.9-1.7c2.5,0,3.8,1.2,3.8,3.6l-1.4,0.7c0-0.3,0-0.6,0-0.8
	c0-1.7-0.7-2.6-2.1-2.6c-1.5,0-2.2,1.8-2.2,5.5c0,3.1,0.8,4.7,2.4,4.7c0.7,0,1.2-0.3,1.7-0.8c0.4-0.5,0.7-1.2,0.7-2
	C44.8,8.8,44.7,8.5,44.6,8z M50.3,0.8v11.8h-3.1V1C48.1,1,49.1,0.9,50.3,0.8z M52.1,12.6V4.1c1,0,2-0.1,3.1-0.2v8.8H52.1z M53.7,0.7
	c1,0,1.4,0.4,1.4,1.1S54.6,3,53.7,3s-1.4-0.4-1.4-1.1S52.7,0.7,53.7,0.7z M65.1,12.6H62V6.3c0-0.6-0.2-1-0.5-1
	c-0.4,0-0.7,0.3-0.9,0.8c-0.3,0.5-0.4,1.1-0.4,1.8v4.7H57V4C58,4,59.1,4,60.1,3.8v1.6c0.8-1.1,1.7-1.6,2.8-1.6
	c1.4,0,2.2,0.7,2.2,2.2V12.6z M71.5,4.1v1h-1.4v6.1c0,0.4,0.1,0.6,0.4,0.6c0.2,0,0.3-0.1,0.3-0.4l0.9,0.1c-0.2,0.9-1,1.3-2.3,1.3
	c-1.6,0-2.3-0.7-2.3-2V5h-1v-1h1V2.6c1.1-0.3,2.1-0.7,3.1-1.3v2.8H71.5z M80.8,1v1.2h-2.9v10.5h-3.6V2.2h-2.9V1H80.8z M85.4,3.8
	c2.8,0,4.3,1.5,4.3,4.5s-1.4,4.5-4.3,4.5c-2.8,0-4.3-1.5-4.3-4.5S82.5,3.8,85.4,3.8z M85.4,4.6c-0.7,0-1,1.2-1,3.7s0.3,3.7,1,3.7
	c0.7,0,1-1.2,1-3.7S86.1,4.6,85.4,4.6z M94.8,3.8c2.8,0,4.3,1.5,4.3,4.5s-1.4,4.5-4.3,4.5c-2.8,0-4.3-1.5-4.3-4.5S92,3.8,94.8,3.8z
	 M94.8,4.6c-0.7,0-1,1.2-1,3.7s0.3,3.7,1,3.7c0.7,0,1-1.2,1-3.7S95.5,4.6,94.8,4.6z M103.5,0.8v11.8h-3.1V1
	C101.2,1,102.3,0.9,103.5,0.8z M111.9,6.3l-1.5,0.3c0-1.3-0.6-1.9-1.8-1.9c-0.7,0-1.1,0.3-1.1,0.9c0,0.4,0.6,0.9,1.9,1.4
	c1.9,0.8,2.9,1.8,2.9,3c0,1.9-1.2,2.9-3.7,2.9c-2.6,0-3.9-1-3.9-2.9l1.6-0.3c0,0.2,0,0.4,0,0.5c0,0.5,0.2,0.9,0.6,1.3
	c0.4,0.4,0.9,0.6,1.5,0.6c0.8,0,1.1-0.3,1.1-1c0-0.4-0.6-0.9-1.8-1.4c-1.8-0.8-2.7-1.8-2.7-3c0-0.8,0.3-1.5,1-2s1.6-0.8,2.7-0.8
	C110.6,3.8,111.7,4.6,111.9,6.3z"/>
</svg>
