<?xml version="1.0" encoding="utf-8"?>
<!-- Generator: Adobe Illustrator 26.0.3, SVG Export Plug-In . SVG Version: 6.00 Build 0)  -->
<svg version="1.1"
	 id="svg4" xmlns:inkscape="http://www.inkscape.org/namespaces/inkscape" xmlns:sodipodi="http://sodipodi.sourceforge.net/DTD/sodipodi-0.dtd" xmlns:svg="http://www.w3.org/2000/svg"
	 xmlns="http://www.w3.org/2000/svg" xmlns:xlink="http://www.w3.org/1999/xlink" x="0px" y="0px" viewBox="0 0 224 16"
	 style="enable-background:new 0 0 224 16;" xml:space="preserve">
<style type="text/css">
	.st0{fill-opacity:0.9;}
	.st1{fill:#620084;}
</style>
<sodipodi:namedview  bordercolor="#666666" borderopacity="1.0" id="namedview6" inkscape:current-layer="svg4" inkscape:cx="63.070638" inkscape:cy="32.360851" inkscape:pagecheckerboard="0" inkscape:pageopacity="0.0" inkscape:pageshadow="2" inkscape:window-height="1007" inkscape:window-maximized="1" inkscape:window-width="1920" inkscape:window-x="0" inkscape:window-y="0" inkscape:zoom="3.0283505" pagecolor="#ffffff" showgrid="false">
	</sodipodi:namedview>
<path id="path2" class="st0" d="M130.6,13.1c-1.1,0-2.1-0.2-3-0.7c-0.9-0.5-1.6-1.2-2.1-2c-0.5-0.9-0.8-1.9-0.8-2.9s0.3-2,0.8-2.9
	c0.5-0.9,1.2-1.6,2.1-2c0.9-0.5,1.9-0.7,3-0.7c0.8,0,1.6,0.1,2.3,0.4c0.7,0.3,1.3,0.7,1.8,1.2L134,4.1c-0.9-0.9-2-1.3-3.3-1.3
	c-0.9,0-1.7,0.2-2.4,0.6c-0.7,0.4-1.3,1-1.7,1.7c-0.4,0.7-0.6,1.5-0.6,2.4s0.2,1.7,0.6,2.4c0.4,0.7,1,1.3,1.7,1.7
	c0.7,0.4,1.5,0.6,2.4,0.6c1.3,0,2.4-0.4,3.3-1.3l0.8,0.8c-0.5,0.5-1.1,0.9-1.8,1.2C132.2,12.9,131.5,13.1,130.6,13.1L130.6,13.1z
	 M140.3,13.1c-0.8,0-1.5-0.2-2.2-0.5c-0.6-0.4-1.2-0.9-1.5-1.5c-0.4-0.7-0.6-1.4-0.6-2.2s0.2-1.6,0.6-2.2c0.4-0.7,0.9-1.2,1.5-1.5
	c0.7-0.4,1.4-0.5,2.2-0.5c0.8,0,1.5,0.2,2.2,0.5c0.7,0.4,1.2,0.9,1.5,1.5c0.4,0.7,0.6,1.4,0.6,2.2s-0.2,1.6-0.6,2.2
	c-0.4,0.7-0.9,1.2-1.5,1.5C141.8,12.9,141.1,13.1,140.3,13.1z M140.3,12.1c0.6,0,1.1-0.1,1.6-0.4c0.5-0.3,0.9-0.7,1.1-1.2
	c0.3-0.5,0.4-1.1,0.4-1.7s-0.1-1.2-0.4-1.7c-0.3-0.5-0.6-0.9-1.1-1.2c-0.5-0.3-1-0.4-1.6-0.4c-0.6,0-1.1,0.1-1.6,0.4
	c-0.5,0.3-0.8,0.7-1.1,1.2c-0.3,0.5-0.4,1.1-0.4,1.7c0,0.6,0.1,1.2,0.4,1.7c0.3,0.5,0.7,0.9,1.1,1.2
	C139.1,11.9,139.7,12.1,140.3,12.1z M157.5,4.5c1.1,0,1.9,0.3,2.5,0.9c0.6,0.6,0.9,1.5,0.9,2.7V13h-1.1V8.2c0-0.9-0.2-1.5-0.6-2
	c-0.4-0.5-1-0.7-1.8-0.7c-0.9,0-1.6,0.3-2.1,0.8c-0.5,0.5-0.8,1.3-0.8,2.2V13h-1.1V8.2c0-0.9-0.2-1.5-0.6-2c-0.4-0.5-1-0.7-1.8-0.7
	c-0.9,0-1.6,0.3-2.1,0.8c-0.5,0.5-0.8,1.3-0.8,2.2V13H147V4.6h1.1v1.5c0.3-0.5,0.7-0.9,1.2-1.2c0.5-0.3,1.1-0.4,1.8-0.4
	c0.7,0,1.3,0.1,1.8,0.4c0.5,0.3,0.9,0.7,1.2,1.3c0.3-0.6,0.8-1,1.3-1.3C156.1,4.7,156.8,4.5,157.5,4.5z M168.5,4.5
	c0.8,0,1.5,0.2,2.1,0.5c0.6,0.4,1.1,0.9,1.5,1.5c0.4,0.7,0.5,1.4,0.5,2.2c0,0.8-0.2,1.6-0.5,2.2c-0.4,0.7-0.9,1.2-1.5,1.5
	c-0.6,0.4-1.3,0.5-2.1,0.5c-0.7,0-1.3-0.1-1.9-0.4c-0.5-0.3-1-0.7-1.3-1.2v4.7h-1.1V4.6h1.1v1.7c0.3-0.6,0.8-1,1.3-1.3
	C167.1,4.7,167.8,4.5,168.5,4.5z M168.4,12.1c0.6,0,1.1-0.1,1.6-0.4c0.5-0.3,0.9-0.7,1.1-1.2c0.3-0.5,0.4-1.1,0.4-1.7
	s-0.1-1.2-0.4-1.7c-0.3-0.5-0.6-0.9-1.1-1.2c-0.5-0.3-1-0.4-1.6-0.4c-0.6,0-1.1,0.1-1.6,0.4c-0.5,0.3-0.8,0.7-1.1,1.2
	c-0.3,0.5-0.4,1.1-0.4,1.7s0.1,1.2,0.4,1.7c0.3,0.5,0.7,0.9,1.1,1.2C167.3,11.9,167.8,12.1,168.4,12.1z M176.2,6.2
	c0.3-0.6,0.7-1,1.2-1.3c0.5-0.3,1.2-0.4,2-0.4v1.1l-0.3,0c-0.9,0-1.6,0.3-2.1,0.8s-0.8,1.3-0.8,2.3V13h-1.1V4.6h1.1V6.2z M188.8,9.1
	h-7c0.1,0.9,0.4,1.6,1,2.1c0.6,0.5,1.4,0.8,2.3,0.8c0.5,0,1-0.1,1.4-0.3c0.4-0.2,0.8-0.5,1.1-0.8l0.6,0.7c-0.4,0.4-0.8,0.8-1.4,1
	c-0.6,0.2-1.2,0.4-1.8,0.4c-0.9,0-1.6-0.2-2.3-0.5c-0.7-0.4-1.2-0.9-1.6-1.5c-0.4-0.7-0.6-1.4-0.6-2.2s0.2-1.6,0.5-2.2
	c0.4-0.7,0.9-1.2,1.5-1.5c0.6-0.4,1.3-0.5,2.1-0.5s1.5,0.2,2.1,0.5c0.6,0.4,1.1,0.9,1.5,1.5c0.4,0.6,0.5,1.4,0.5,2.2L188.8,9.1z
	 M184.8,5.5c-0.8,0-1.5,0.3-2,0.8c-0.5,0.5-0.9,1.2-0.9,2h6c-0.1-0.8-0.4-1.5-0.9-2C186.3,5.7,185.6,5.5,184.8,5.5z M193.6,13.1
	c-0.7,0-1.3-0.1-2-0.3c-0.6-0.2-1.1-0.5-1.5-0.8l0.5-0.9c0.4,0.3,0.8,0.5,1.3,0.7c0.5,0.2,1.1,0.3,1.7,0.3c0.8,0,1.3-0.1,1.7-0.4
	c0.4-0.2,0.6-0.6,0.6-1c0-0.3-0.1-0.5-0.3-0.7c-0.2-0.2-0.5-0.3-0.8-0.4c-0.3-0.1-0.7-0.2-1.2-0.3c-0.7-0.1-1.2-0.3-1.6-0.4
	c-0.4-0.1-0.8-0.4-1.1-0.7c-0.3-0.3-0.4-0.8-0.4-1.3c0-0.7,0.3-1.3,0.9-1.7c0.6-0.4,1.4-0.7,2.4-0.7c0.5,0,1.1,0.1,1.6,0.2
	c0.5,0.1,1,0.3,1.3,0.6l-0.5,0.9c-0.7-0.5-1.5-0.7-2.5-0.7c-0.7,0-1.3,0.1-1.6,0.4c-0.4,0.3-0.5,0.6-0.5,1c0,0.3,0.1,0.6,0.3,0.8
	c0.2,0.2,0.5,0.3,0.8,0.4c0.3,0.1,0.7,0.2,1.3,0.3c0.7,0.1,1.2,0.3,1.6,0.4s0.8,0.3,1,0.7s0.4,0.7,0.4,1.3c0,0.7-0.3,1.3-0.9,1.8
	C195.5,12.9,194.7,13.1,193.6,13.1L193.6,13.1z M201.6,13.1c-0.7,0-1.3-0.1-2-0.3c-0.6-0.2-1.1-0.5-1.5-0.8l0.5-0.9
	c0.4,0.3,0.8,0.5,1.3,0.7c0.5,0.2,1.1,0.3,1.7,0.3c0.8,0,1.3-0.1,1.7-0.4c0.4-0.2,0.6-0.6,0.6-1c0-0.3-0.1-0.5-0.3-0.7
	c-0.2-0.2-0.5-0.3-0.8-0.4c-0.3-0.1-0.7-0.2-1.2-0.3c-0.7-0.1-1.2-0.3-1.6-0.4c-0.4-0.1-0.8-0.4-1.1-0.7c-0.3-0.3-0.4-0.8-0.4-1.3
	c0-0.7,0.3-1.3,0.9-1.7c0.6-0.4,1.4-0.7,2.4-0.7c0.5,0,1.1,0.1,1.6,0.2c0.5,0.1,1,0.3,1.3,0.6l-0.5,0.9c-0.7-0.5-1.5-0.7-2.5-0.7
	c-0.7,0-1.3,0.1-1.6,0.4c-0.4,0.3-0.5,0.6-0.5,1c0,0.3,0.1,0.6,0.3,0.8c0.2,0.2,0.5,0.3,0.8,0.4c0.3,0.1,0.7,0.2,1.3,0.3
	c0.7,0.1,1.2,0.3,1.6,0.4c0.4,0.1,0.8,0.3,1,0.7s0.4,0.7,0.4,1.3c0,0.7-0.3,1.3-0.9,1.8C203.5,12.9,202.7,13.1,201.6,13.1
	L201.6,13.1z M210.8,13.1c-0.8,0-1.5-0.2-2.2-0.5c-0.6-0.4-1.2-0.9-1.5-1.5c-0.4-0.7-0.6-1.4-0.6-2.2s0.2-1.6,0.6-2.2
	c0.4-0.7,0.9-1.2,1.5-1.5c0.7-0.4,1.4-0.5,2.2-0.5c0.8,0,1.5,0.2,2.2,0.5c0.7,0.4,1.2,0.9,1.5,1.5c0.4,0.7,0.6,1.4,0.6,2.2
	s-0.2,1.6-0.6,2.2c-0.4,0.7-0.9,1.2-1.5,1.5C212.3,12.9,211.6,13.1,210.8,13.1z M210.8,12.1c0.6,0,1.1-0.1,1.6-0.4
	c0.5-0.3,0.9-0.7,1.1-1.2c0.3-0.5,0.4-1.1,0.4-1.7s-0.1-1.2-0.4-1.7c-0.3-0.5-0.6-0.9-1.1-1.2c-0.5-0.3-1-0.4-1.6-0.4
	c-0.6,0-1.1,0.1-1.6,0.4c-0.5,0.3-0.8,0.7-1.1,1.2c-0.3,0.5-0.4,1.1-0.4,1.7c0,0.6,0.1,1.2,0.4,1.7c0.3,0.5,0.7,0.9,1.1,1.2
	C209.6,11.9,210.2,12.1,210.8,12.1z M218.6,6.2c0.3-0.6,0.7-1,1.2-1.3c0.5-0.3,1.2-0.4,2-0.4v1.1l-0.3,0c-0.9,0-1.6,0.3-2.1,0.8
	c-0.5,0.5-0.8,1.3-0.8,2.3V13h-1.1V4.6h1.1V6.2z"/>
<g>
	<path class="st1" d="M48.2,9.2l1.4,0.4c0,0.3,0,0.6,0,0.8c0,1.1-0.4,2-1.2,2.7s-1.9,1-3.3,1c-3.4,0-5.2-1.9-5.2-5.8
		c0-1.8,0.5-3.3,1.5-4.5c1-1.1,2.3-1.7,3.9-1.7c2.5,0,3.8,1.2,3.8,3.6l-1.4,0.7c0-0.3,0-0.6,0-0.8c0-1.7-0.7-2.6-2.1-2.6
		c-1.5,0-2.2,1.8-2.2,5.5c0,3.1,0.8,4.7,2.4,4.7c0.7,0,1.2-0.3,1.7-0.8c0.4-0.5,0.7-1.2,0.7-2C48.3,10.1,48.3,9.7,48.2,9.2z"/>
	<path class="st1" d="M53.9,2.1v11.8h-3.1V2.2C51.6,2.2,52.7,2.2,53.9,2.1z"/>
	<path class="st1" d="M55.6,13.9V5.3c1,0,2-0.1,3.1-0.2v8.8H55.6z M57.2,1.9c1,0,1.4,0.4,1.4,1.1s-0.5,1.1-1.4,1.1
		c-1,0-1.4-0.4-1.4-1.1S56.2,1.9,57.2,1.9z"/>
	<path class="st1" d="M68.6,13.9h-3.1V7.6c0-0.6-0.2-1-0.5-1c-0.4,0-0.7,0.3-0.9,0.8c-0.3,0.5-0.4,1.1-0.4,1.8v4.7h-3.1V5.3
		c1.1,0,2.1-0.1,3.1-0.2v1.6C64.4,5.6,65.3,5,66.5,5c1.4,0,2.2,0.7,2.2,2.2V13.9z"/>
	<path class="st1" d="M75,5.3v1h-1.4v6.1c0,0.4,0.1,0.6,0.4,0.6c0.2,0,0.3-0.1,0.3-0.4l0.9,0.1c-0.2,0.9-1,1.3-2.3,1.3
		c-1.6,0-2.3-0.7-2.3-2V6.3h-1v-1h1V3.8c1.1-0.3,2.1-0.7,3.1-1.3v2.8H75z"/>
	<path class="st1" d="M84.3,2.2v1.2h-2.9v10.5h-3.6V3.4H75V2.2H84.3z"/>
	<path class="st1" d="M88.9,5c2.8,0,4.3,1.5,4.3,4.5S91.8,14,88.9,14c-2.8,0-4.3-1.5-4.3-4.5S86.1,5,88.9,5z M88.9,5.8
		c-0.7,0-1,1.2-1,3.7s0.3,3.7,1,3.7c0.7,0,1-1.2,1-3.7S89.6,5.8,88.9,5.8z"/>
	<path class="st1" d="M98.4,5c2.8,0,4.3,1.5,4.3,4.5s-1.4,4.5-4.3,4.5c-2.8,0-4.3-1.5-4.3-4.5S95.5,5,98.4,5z M98.4,5.8
		c-0.7,0-1,1.2-1,3.7s0.3,3.7,1,3.7c0.7,0,1-1.2,1-3.7S99,5.8,98.4,5.8z"/>
	<path class="st1" d="M107,2.1v11.8h-3.1V2.2C104.8,2.2,105.8,2.2,107,2.1z"/>
	<path class="st1" d="M115.4,7.5l-1.5,0.3c0-1.3-0.6-1.9-1.8-1.9c-0.7,0-1.1,0.3-1.1,0.9c0,0.4,0.6,0.9,1.9,1.4
		c1.9,0.8,2.9,1.8,2.9,3c0,1.9-1.2,2.9-3.7,2.9c-2.6,0-3.9-1-3.9-2.9l1.6-0.3c0,0.2,0,0.4,0,0.5c0,0.5,0.2,0.9,0.6,1.3
		c0.4,0.4,0.9,0.6,1.5,0.6c0.8,0,1.1-0.3,1.1-1c0-0.4-0.6-0.9-1.8-1.4c-1.8-0.8-2.7-1.8-2.7-3c0-0.8,0.3-1.5,1-2s1.6-0.8,2.7-0.8
		C114.2,5.1,115.2,5.9,115.4,7.5z"/>
</g>
</svg>
