<?xml version="1.0" encoding="utf-8"?>
<!-- Generator: Adobe Illustrator 26.0.3, SVG Export Plug-In . SVG Version: 6.00 Build 0)  -->
<svg version="1.1" id="Layer_1" xmlns="http://www.w3.org/2000/svg" xmlns:xlink="http://www.w3.org/1999/xlink" x="0px" y="0px"
	 viewBox="0 0 301 27" style="enable-background:new 0 0 301 27;" xml:space="preserve">
<path d="M171.8,3.4H165V1.7h15.6v1.8h-6.8V21h-2V3.4z M185.3,9.3c0.5-1,1.1-1.7,2-2.2c0.9-0.5,2.1-0.7,3.4-0.7v1.9l-0.5,0
	c-1.5,0-2.7,0.5-3.6,1.4c-0.9,0.9-1.3,2.3-1.3,3.9V21h-2V6.5h1.9V9.3z M194.5,6.5h2V21h-2V6.5z M195.5,3.3c-0.4,0-0.7-0.1-1-0.4
	c-0.3-0.3-0.4-0.6-0.4-1c0-0.4,0.1-0.7,0.4-1c0.3-0.3,0.6-0.4,1-0.4s0.7,0.1,1,0.4c0.3,0.3,0.4,0.6,0.4,0.9c0,0.4-0.1,0.7-0.4,1
	C196.3,3.2,195.9,3.3,195.5,3.3z M215.7,6.5v12.8c0,2.5-0.6,4.3-1.8,5.5c-1.2,1.2-3,1.8-5.4,1.8c-1.3,0-2.6-0.2-3.8-0.6
	c-1.2-0.4-2.2-0.9-2.9-1.6l1-1.5c0.7,0.6,1.5,1.1,2.5,1.5c1,0.3,2.1,0.5,3.2,0.5c1.8,0,3.2-0.4,4.1-1.3c0.9-0.8,1.3-2.2,1.3-4v-1.9
	c-0.6,0.9-1.4,1.6-2.4,2.1c-1,0.5-2.1,0.7-3.3,0.7c-1.4,0-2.6-0.3-3.7-0.9c-1.1-0.6-2-1.4-2.6-2.5c-0.6-1.1-0.9-2.3-0.9-3.7
	c0-1.4,0.3-2.6,0.9-3.6c0.6-1.1,1.5-1.9,2.6-2.5c1.1-0.6,2.3-0.9,3.7-0.9c1.2,0,2.3,0.2,3.3,0.7c1,0.5,1.8,1.2,2.4,2.2V6.5H215.7z
	 M208.3,18.7c1.1,0,2-0.2,2.8-0.7c0.8-0.5,1.5-1.1,2-1.9c0.5-0.8,0.7-1.7,0.7-2.8c0-1-0.2-1.9-0.7-2.7c-0.5-0.8-1.1-1.4-2-1.9
	c-0.8-0.5-1.8-0.7-2.8-0.7c-1,0-2,0.2-2.8,0.7c-0.8,0.4-1.5,1.1-2,1.9c-0.5,0.8-0.7,1.7-0.7,2.8c0,1,0.2,2,0.7,2.8
	c0.5,0.8,1.1,1.4,2,1.9C206.3,18.5,207.2,18.7,208.3,18.7z M234.9,6.5v12.8c0,2.5-0.6,4.3-1.8,5.5c-1.2,1.2-3,1.8-5.4,1.8
	c-1.3,0-2.6-0.2-3.8-0.6c-1.2-0.4-2.2-0.9-2.9-1.6l1-1.5c0.7,0.6,1.5,1.1,2.5,1.5c1,0.3,2.1,0.5,3.2,0.5c1.8,0,3.2-0.4,4.1-1.3
	c0.9-0.8,1.3-2.2,1.3-4v-1.9c-0.6,0.9-1.4,1.6-2.4,2.1c-1,0.5-2.1,0.7-3.3,0.7c-1.4,0-2.6-0.3-3.7-0.9c-1.1-0.6-2-1.4-2.6-2.5
	c-0.6-1.1-0.9-2.3-0.9-3.7c0-1.4,0.3-2.6,0.9-3.6c0.6-1.1,1.5-1.9,2.6-2.5c1.1-0.6,2.3-0.9,3.7-0.9c1.2,0,2.3,0.2,3.3,0.7
	c1,0.5,1.8,1.2,2.4,2.2V6.5H234.9z M227.5,18.7c1,0,2-0.2,2.8-0.7c0.8-0.5,1.5-1.1,2-1.9c0.5-0.8,0.7-1.7,0.7-2.8
	c0-1-0.2-1.9-0.7-2.7c-0.5-0.8-1.1-1.4-2-1.9c-0.8-0.5-1.8-0.7-2.8-0.7c-1,0-2,0.2-2.8,0.7c-0.8,0.4-1.5,1.1-2,1.9
	c-0.5,0.8-0.7,1.7-0.7,2.8c0,1,0.2,2,0.7,2.8c0.5,0.8,1.1,1.4,2,1.9C225.5,18.5,226.4,18.7,227.5,18.7z M253.3,14.3h-12.1
	c0.1,1.5,0.7,2.7,1.7,3.7c1,0.9,2.4,1.4,4,1.4c0.9,0,1.7-0.2,2.5-0.5c0.8-0.3,1.4-0.8,2-1.4l1.1,1.3c-0.6,0.8-1.5,1.4-2.4,1.8
	c-1,0.4-2,0.6-3.2,0.6c-1.5,0-2.8-0.3-4-0.9c-1.1-0.6-2-1.5-2.7-2.7c-0.6-1.1-1-2.4-1-3.8c0-1.4,0.3-2.7,0.9-3.8
	c0.6-1.1,1.5-2,2.5-2.6c1.1-0.6,2.3-0.9,3.6-0.9c1.3,0,2.6,0.3,3.6,0.9c1.1,0.6,1.9,1.5,2.5,2.6c0.6,1.1,0.9,2.4,0.9,3.8L253.3,14.3
	z M246.3,8c-1.4,0-2.6,0.5-3.5,1.4c-0.9,0.9-1.5,2-1.6,3.5h10.3c-0.1-1.4-0.7-2.6-1.6-3.5C248.9,8.5,247.7,8,246.3,8z M259.5,9.3
	c0.5-1,1.1-1.7,2-2.2c0.9-0.5,2.1-0.7,3.4-0.7v1.9l-0.5,0c-1.5,0-2.7,0.5-3.6,1.4c-0.9,0.9-1.3,2.3-1.3,3.9V21h-2V6.5h1.9V9.3z
	 M271,3.4V11h10v1.8h-10V21h-2V1.7h13.3v1.8H271z M298.4,21l-6.2-8.5l-6.2,8.5h-2.3l7.3-9.9L284,1.7h2.3l5.8,7.9l5.8-7.9h2.2
	l-6.8,9.3l7.4,10H298.4z M45.8,13.3l2.4,0.6c0,0.5,0.1,0.9,0.1,1.3c0,1.9-0.7,3.4-2.1,4.5c-1.4,1.1-3.2,1.7-5.5,1.7
	c-5.8,0-8.7-3.3-8.7-9.8c0-3.1,0.8-5.6,2.5-7.5c1.7-1.9,3.9-2.9,6.6-2.9c4.2,0,6.3,2,6.3,6.1L45,8.5c0-0.6,0-1,0-1.3
	c0-2.9-1.2-4.3-3.5-4.3C39.2,2.9,38,6,38,12.1c0,5.3,1.4,7.9,4.1,7.9c1.1,0,2.1-0.4,2.8-1.3c0.7-0.9,1.1-2,1.1-3.4
	C46,14.8,45.9,14.2,45.8,13.3z M55.3,1.4v19.8h-5.2V1.7C51.6,1.7,53.3,1.6,55.3,1.4z M58.3,21.2V6.8c1.6,0,3.4-0.1,5.2-0.4v14.8
	H58.3z M60.9,1.2c1.6,0,2.4,0.6,2.4,1.9s-0.8,1.9-2.4,1.9c-1.6,0-2.4-0.6-2.4-1.9S59.3,1.2,60.9,1.2z M80.1,21.2h-5.2V10.6
	c0-1.1-0.3-1.6-0.9-1.6c-0.6,0-1.1,0.4-1.6,1.3c-0.4,0.9-0.7,1.9-0.7,3v7.9h-5.2V6.7c1.8,0,3.5-0.1,5.2-0.4v2.7
	c1.3-1.8,2.9-2.7,4.7-2.7c2.4,0,3.6,1.2,3.6,3.7V21.2z M90.8,6.8v1.6h-2.3v10.2c0,0.6,0.2,1,0.6,1c0.3,0,0.5-0.2,0.5-0.6l1.5,0.1
	c-0.4,1.5-1.7,2.3-3.9,2.3c-2.6,0-3.9-1.1-3.9-3.3V8.4h-1.7V6.8h1.7V4.3c1.8-0.5,3.5-1.2,5.2-2.1v4.7H90.8z M106.4,1.7v2h-4.8v17.6
	h-6V3.6h-4.8v-2H106.4z M114.1,6.4c4.8,0,7.2,2.5,7.2,7.6s-2.4,7.6-7.2,7.6c-4.8,0-7.2-2.5-7.2-7.6S109.3,6.4,114.1,6.4z M114.1,7.7
	c-1.2,0-1.7,2.1-1.7,6.3s0.6,6.3,1.7,6.3c1.2,0,1.7-2.1,1.7-6.3S115.3,7.7,114.1,7.7z M130,6.4c4.8,0,7.2,2.5,7.2,7.6
	s-2.4,7.6-7.2,7.6c-4.8,0-7.2-2.5-7.2-7.6S125.2,6.4,130,6.4z M130,7.7c-1.2,0-1.7,2.1-1.7,6.3s0.6,6.3,1.7,6.3
	c1.2,0,1.7-2.1,1.7-6.3S131.1,7.7,130,7.7z M144.5,1.4v19.8h-5.2V1.7C140.7,1.7,142.5,1.6,144.5,1.4z M158.6,10.5l-2.5,0.4
	c0-2.2-1-3.2-3-3.2c-1.2,0-1.8,0.5-1.8,1.5c0,0.7,1.1,1.5,3.2,2.4c3.2,1.3,4.9,3,4.9,5c0,3.3-2.1,4.9-6.2,4.9
	c-4.4,0-6.6-1.6-6.6-4.9l2.7-0.5c0,0.3-0.1,0.6-0.1,0.9c0,0.8,0.4,1.6,1.1,2.2c0.7,0.6,1.5,0.9,2.5,0.9c1.3,0,1.9-0.5,1.9-1.6
	c0-0.7-1-1.5-3-2.4c-3.1-1.3-4.6-3-4.6-5.1c0-1.4,0.6-2.5,1.8-3.4s2.7-1.3,4.5-1.3C156.5,6.4,158.3,7.8,158.6,10.5z"/>
</svg>
